<svg width="16" height="16" viewBox="0 0 16 16" fill="none" xmlns="http://www.w3.org/2000/svg">
<g clip-path="url(#clip0_388_4877)">
<path d="M8.50065 6C8.50065 5.72386 8.27679 5.5 8.00065 5.5C7.72451 5.5 7.50065 5.72386 7.50065 6L7.50065 7.50001H6.00065C5.72451 7.50001 5.50065 7.72387 5.50065 8.00001C5.50065 8.27616 5.72451 8.50001 6.00065 8.50001H7.50065V10C7.50065 10.2761 7.72451 10.5 8.00065 10.5C8.27679 10.5 8.50065 10.2761 8.50065 10L8.50065 8.50001H10.0007C10.2768 8.50001 10.5007 8.27616 10.5007 8.00001C10.5007 7.72387 10.2768 7.50001 10.0007 7.50001H8.50065V6Z" fill="#272D37"/>
<path fill-rule="evenodd" clip-rule="evenodd" d="M8.00065 0.833332C4.04261 0.833332 0.833984 4.04196 0.833984 8C0.833984 11.958 4.04261 15.1667 8.00065 15.1667C11.9587 15.1667 15.1673 11.958 15.1673 8C15.1673 4.04196 11.9587 0.833332 8.00065 0.833332ZM1.83398 8C1.83398 4.59424 4.59489 1.83333 8.00065 1.83333C11.4064 1.83333 14.1673 4.59424 14.1673 8C14.1673 11.4058 11.4064 14.1667 8.00065 14.1667C4.59489 14.1667 1.83398 11.4058 1.83398 8Z" fill="#272D37"/>
</g>
<defs>
<clipPath id="clip0_388_4877">
<rect width="16" height="16" fill="white"/>
</clipPath>
</defs>
</svg>
