<svg width="25" height="25" viewBox="0 0 25 25" fill="none" xmlns="http://www.w3.org/2000/svg">
<path fill-rule="evenodd" clip-rule="evenodd" d="M11.5968 22.4342C6.61713 21.8624 2.75 17.6328 2.75 12.5C2.75 6.97715 7.22715 2.5 12.75 2.5C18.2728 2.5 22.75 6.97715 22.75 12.5C22.75 17.6565 19.4673 17.2325 16.6635 16.8703C15.0464 16.6614 13.5886 16.4731 13.0119 17.388C12.6174 18.0136 13.0438 18.7938 13.5668 19.3168C14.2203 19.9703 14.2203 21.0297 13.5668 21.6832C13.0438 22.2062 12.3316 22.5186 11.5968 22.4342ZM11.835 7.49976C11.835 8.32818 11.1634 8.99976 10.335 8.99976C9.50658 8.99976 8.835 8.32818 8.835 7.49976C8.835 6.67133 9.50658 5.99976 10.335 5.99976C11.1634 5.99976 11.835 6.67133 11.835 7.49976ZM7.25 13.5C8.07843 13.5 8.75 12.8284 8.75 12C8.75 11.1716 8.07843 10.5 7.25 10.5C6.42157 10.5 5.75 11.1716 5.75 12C5.75 12.8284 6.42157 13.5 7.25 13.5ZM18.25 13.5C19.0784 13.5 19.75 12.8284 19.75 12C19.75 11.1716 19.0784 10.5 18.25 10.5C17.4216 10.5 16.75 11.1716 16.75 12C16.75 12.8284 17.4216 13.5 18.25 13.5ZM15.25 8.99998C16.0784 8.99998 16.75 8.32841 16.75 7.49998C16.75 6.67156 16.0784 5.99998 15.25 5.99998C14.4216 5.99998 13.75 6.67156 13.75 7.49998C13.75 8.32841 14.4216 8.99998 15.25 8.99998Z" fill="#3D58DB"/>
</svg>
