<svg width="25" height="24" viewBox="0 0 25 24" fill="none" xmlns="http://www.w3.org/2000/svg">
<path fill-rule="evenodd" clip-rule="evenodd" d="M8.75 7.00151L8.75 6C8.75 3.92893 10.4289 2.25 12.5 2.25C14.5711 2.25 16.25 3.92893 16.25 6V7L16.25 7.00151C18.9344 7.0136 20.3606 7.1222 21.1606 8.09803C22.0608 9.19607 21.7287 10.8563 21.0646 14.1767L20.4646 17.1767C20.0029 19.4856 19.772 20.6401 18.9425 21.32C18.1131 22 16.9358 22 14.5812 22H10.4188C8.06417 22 6.88686 22 6.05742 21.32C5.22799 20.6401 4.9971 19.4856 4.53532 17.1767L3.93532 14.1767C3.27123 10.8563 2.93919 9.19607 3.83936 8.09803C4.63936 7.12219 6.06562 7.0136 8.75 7.00151ZM10.25 6C10.25 4.75736 11.2574 3.75 12.5 3.75C13.7426 3.75 14.75 4.75736 14.75 6V7H10.25V6ZM15.5 11C16.0523 11 16.5 10.5523 16.5 10C16.5 9.44772 16.0523 9 15.5 9C14.9477 9 14.5 9.44772 14.5 10C14.5 10.5523 14.9477 11 15.5 11ZM10.5 10C10.5 10.5523 10.0523 11 9.49998 11C8.94769 11 8.49998 10.5523 8.49998 10C8.49998 9.44772 8.94769 9 9.49998 9C10.0523 9 10.5 9.44772 10.5 10Z" fill="#7433FF"/>
</svg>
