<svg width="25" height="24" viewBox="0 0 25 24" fill="none" xmlns="http://www.w3.org/2000/svg">
    <path d="M11.75 10.5V7.25H10C9.03602 7.25 8.38846 7.2516 7.90542 7.31654C7.44396 7.37858 7.24646 7.4858 7.11615 7.61612C6.98583 7.74644 6.87861 7.94393 6.81656 8.40539C6.75162 8.88843 6.75003 9.53599 6.75003 10.5L11.75 10.5Z" fill="#3787FF" />
    <path d="M18.25 10.5C18.25 9.53599 18.2484 8.88843 18.1835 8.40539C18.1215 7.94393 18.0142 7.74644 17.8839 7.61612C17.7536 7.4858 17.5561 7.37858 17.0946 7.31654C16.6116 7.2516 15.964 7.25 15 7.25H13.25V10.5L18.25 10.5Z" fill="#3787FF" />
    <path fill-rule="evenodd" clip-rule="evenodd"
        d="M13.5 4H11.5C7.72879 4 5.84317 4 4.6716 5.17157C3.64913 6.19404 3.519 7.76038 3.50244 10.6494V12.2665C3.1221 12.4854 2.822 12.8248 2.65224 13.2346C2.5 13.6022 2.5 14.0681 2.5 15C2.5 15.9319 2.5 16.3978 2.65224 16.7654C2.85523 17.2554 3.24458 17.6448 3.73463 17.8478C3.98702 17.9523 4.28581 17.9851 4.75 17.9953V20C4.75 20.4142 5.08579 20.75 5.5 20.75C5.91421 20.75 6.25 20.4142 6.25 20V18H18.75V20C18.75 20.4142 19.0858 20.75 19.5 20.75C19.9142 20.75 20.25 20.4142 20.25 20V17.9953C20.7142 17.9851 21.013 17.9523 21.2654 17.8478C21.7554 17.6448 22.1448 17.2554 22.3478 16.7654C22.5 16.3978 22.5 15.9319 22.5 15C22.5 14.0681 22.5 13.6022 22.3478 13.2346C22.178 12.8248 21.8779 12.4854 21.4976 12.2666V10.6494C21.4811 7.76038 21.3509 6.19404 20.3285 5.17157C19.1569 4 17.2713 4 13.5 4ZM19.75 12.0001V10.448C19.7501 9.54955 19.7501 8.80028 19.6701 8.20552C19.5857 7.57773 19.4 7.01093 18.9446 6.55546C18.4891 6.09999 17.9223 5.91432 17.2945 5.82991C16.6997 5.74995 15.9505 5.74997 15.052 5.75H9.94803C9.04955 5.74997 8.30033 5.74995 7.70555 5.82991C7.07776 5.91432 6.51095 6.09999 6.05549 6.55546C5.60002 7.01093 5.41434 7.57773 5.32994 8.20552C5.24997 8.8003 5.25 9.54952 5.25003 10.448V12.0001C5.32946 12 5.41269 12 5.5 12H19.5C19.5873 12 19.6706 12 19.75 12.0001Z"
        fill="#3787FF" />
</svg>
