<svg width="16" height="17" viewBox="0 0 16 17" fill="none" xmlns="http://www.w3.org/2000/svg">
    <path fill-rule="evenodd" clip-rule="evenodd"
        d="M7.29576 2.66675H8.70432C9.92949 2.66674 10.8999 2.66673 11.6594 2.76884C12.441 2.87392 13.0736 3.09533 13.5725 3.59424C14.0715 4.09315 14.2929 4.72579 14.3979 5.5074C14.4989 6.25791 14.5 7.21442 14.5 8.4192C14.7293 8.60835 14.9113 8.8522 15.0272 9.13183C15.1073 9.32542 15.1384 9.52511 15.1529 9.73651C15.1667 9.93958 15.1667 10.1869 15.1667 10.4832V10.5169C15.1667 10.8132 15.1667 11.0606 15.1529 11.2637C15.1384 11.4751 15.1073 11.6747 15.0272 11.8683C14.8411 12.3176 14.4842 12.6745 14.035 12.8605C13.8414 12.9407 13.6417 12.9718 13.4303 12.9862C13.3495 12.9917 13.2618 12.9951 13.1667 12.9971V13.8334C13.1667 14.1096 12.9428 14.3334 12.6667 14.3334C12.3906 14.3334 12.1667 14.1096 12.1667 13.8334V13.0001H3.83337V13.8334C3.83337 14.1096 3.60952 14.3334 3.33337 14.3334C3.05723 14.3334 2.83337 14.1096 2.83337 13.8334V12.9971C2.73832 12.9951 2.65056 12.9917 2.5698 12.9862C2.3584 12.9718 2.15871 12.9407 1.96512 12.8605C1.5159 12.6745 1.159 12.3176 0.972929 11.8683C0.89274 11.6747 0.861645 11.4751 0.847221 11.2637C0.833365 11.0606 0.833369 10.8132 0.833374 10.5169V10.4832C0.833369 10.1869 0.833365 9.93958 0.847221 9.73651C0.861645 9.52511 0.89274 9.32542 0.972929 9.13183C1.08875 8.8522 1.27077 8.60835 1.50004 8.4192C1.50004 7.21442 1.50123 6.25791 1.60213 5.5074C1.70722 4.72579 1.92863 4.09315 2.42754 3.59424C2.92645 3.09533 3.55908 2.87392 4.34069 2.76884C5.10017 2.66673 6.07059 2.66674 7.29576 2.66675ZM2.5003 8.01935C2.52333 8.01731 2.54649 8.01552 2.5698 8.01393C2.73764 8.00248 2.93573 8.00049 3.16671 8.00015L3.16671 7.46541C3.16669 6.86643 3.16667 6.36695 3.21998 5.97043C3.27625 5.5519 3.40003 5.17403 3.70368 4.87039C4.00732 4.56674 4.38519 4.44296 4.80372 4.38669C5.20024 4.33338 5.69972 4.33339 6.29871 4.33341H9.70138C10.3004 4.33339 10.7998 4.33338 11.1964 4.38669C11.6149 4.44296 11.9928 4.56674 12.2964 4.87039C12.6 5.17403 12.7238 5.5519 12.7801 5.97043C12.8334 6.36695 12.8334 6.86643 12.8334 7.46542V8.00015C13.0643 8.00049 13.2624 8.00248 13.4303 8.01393C13.4536 8.01552 13.4768 8.01731 13.4998 8.01935C13.4982 6.99611 13.4869 6.23605 13.4069 5.64065C13.3167 4.96992 13.1476 4.58349 12.8654 4.30135C12.5833 4.01921 12.1969 3.8501 11.5261 3.75992C10.841 3.66781 9.93792 3.66675 8.66671 3.66675H7.33337C6.06216 3.66675 5.15905 3.66781 4.47394 3.75992C3.80321 3.8501 3.41678 4.01921 3.13464 4.30135C2.8525 4.58349 2.68339 4.96992 2.59321 5.64065C2.51316 6.23605 2.50188 6.99611 2.5003 8.01935ZM11.8334 8.00008V7.50008C11.8334 6.85741 11.8323 6.4257 11.789 6.10368C11.7477 5.79604 11.6762 5.66437 11.5893 5.57749C11.5024 5.49062 11.3708 5.41913 11.0631 5.37777C10.7411 5.33448 10.3094 5.33342 9.66671 5.33342H8.50004V8.00008H11.8334ZM7.50004 8.00008V5.33342H6.33337C5.6907 5.33342 5.25899 5.33448 4.93697 5.37777C4.62933 5.41913 4.49766 5.49062 4.41079 5.57749C4.32391 5.66437 4.25243 5.79604 4.21106 6.10368C4.16777 6.4257 4.16671 6.85741 4.16671 7.50008V8.00008H7.50004ZM2.63787 9.01161C2.47738 9.02256 2.39924 9.04221 2.3478 9.06352C2.14361 9.14809 1.98139 9.31032 1.89681 9.51451C1.8755 9.56595 1.85585 9.64409 1.8449 9.80458C1.83364 9.96955 1.83337 10.1826 1.83337 10.5001C1.83337 10.8176 1.83364 11.0306 1.8449 11.1956C1.85585 11.3561 1.8755 11.4342 1.89681 11.4857C1.98139 11.6898 2.14361 11.8521 2.3478 11.9366C2.39924 11.958 2.47738 11.9776 2.63787 11.9886C2.80284 11.9998 3.01591 12.0001 3.33337 12.0001H12.6667C12.9842 12.0001 13.1972 11.9998 13.3622 11.9886C13.5227 11.9776 13.6008 11.958 13.6523 11.9366C13.8565 11.8521 14.0187 11.6898 14.1033 11.4857C14.1246 11.4342 14.1442 11.3561 14.1552 11.1956C14.1664 11.0306 14.1667 10.8176 14.1667 10.5001C14.1667 10.1826 14.1664 9.96955 14.1552 9.80458C14.1442 9.64409 14.1246 9.56595 14.1033 9.51451C14.0187 9.31032 13.8565 9.14809 13.6523 9.06352C13.6008 9.04221 13.5227 9.02256 13.3622 9.01161C13.1972 9.00035 12.9842 9.00008 12.6667 9.00008H3.33337C3.01591 9.00008 2.80284 9.00035 2.63787 9.01161Z"
        fill="#272D37" />
</svg>
