<svg width="25" height="24" viewBox="0 0 25 24" fill="none" xmlns="http://www.w3.org/2000/svg">
<path fill-rule="evenodd" clip-rule="evenodd" d="M10.4998 2.25C9.80136 2.25 9.19851 2.65912 8.9178 3.25077C8.23426 3.25574 7.70152 3.28712 7.22597 3.47298C6.65778 3.69505 6.16357 4.07255 5.79985 4.5623C5.43292 5.05639 5.26067 5.68968 5.0236 6.56133L4.97721 6.73169L4.46448 9.69473C4.27895 9.82272 4.11781 9.97428 3.97767 10.1538C3.07684 11.3075 3.50581 13.0234 4.36376 16.4552C4.90943 18.6379 5.18227 19.7292 5.99605 20.3646C6.80983 21 7.93476 21 10.1846 21H14.8153C17.0652 21 18.1901 21 19.0039 20.3646C19.8176 19.7292 20.0905 18.6379 20.6362 16.4552C21.4941 13.0234 21.9231 11.3075 21.0222 10.1538C20.882 9.97414 20.7207 9.82247 20.535 9.69442L20.0223 6.73169L19.9759 6.56133C19.7388 5.68968 19.5666 5.05639 19.1997 4.5623C18.836 4.07255 18.3417 3.69505 17.7736 3.47298C17.298 3.28712 16.7653 3.25574 16.0817 3.25077C15.801 2.65912 15.1982 2.25 14.4998 2.25H10.4998ZM18.9177 9.14571L18.5564 7.05765C18.2726 6.01794 18.1696 5.69121 17.9954 5.45663C17.7996 5.19291 17.5335 4.98964 17.2275 4.87007C17.0077 4.78416 16.7421 4.75888 16.0803 4.75219C15.799 5.34225 15.197 5.75 14.4998 5.75H10.4998C9.80252 5.75 9.20052 5.34225 8.91921 4.75219C8.25738 4.75888 7.9918 4.78416 7.772 4.87007C7.46605 4.98964 7.19994 5.19291 7.00409 5.45662C6.82988 5.6912 6.72688 6.01794 6.4431 7.05765L6.08176 9.14577C7.07992 9 8.4096 9 10.1846 9H14.8153C16.5901 9 17.9196 9 18.9177 9.14571ZM8.5 12.25C8.91421 12.25 9.25 12.5858 9.25 13V17C9.25 17.4142 8.91421 17.75 8.5 17.75C8.08579 17.75 7.75 17.4142 7.75 17V13C7.75 12.5858 8.08579 12.25 8.5 12.25ZM17.25 13C17.25 12.5858 16.9142 12.25 16.5 12.25C16.0858 12.25 15.75 12.5858 15.75 13V17C15.75 17.4142 16.0858 17.75 16.5 17.75C16.9142 17.75 17.25 17.4142 17.25 17V13ZM12.5 12.25C12.9142 12.25 13.25 12.5858 13.25 13V17C13.25 17.4142 12.9142 17.75 12.5 17.75C12.0858 17.75 11.75 17.4142 11.75 17V13C11.75 12.5858 12.0858 12.25 12.5 12.25Z" fill="#FF9922"/>
</svg>
