<svg width="25" height="24" viewBox="0 0 25 24" fill="none" xmlns="http://www.w3.org/2000/svg">
<path d="M11.75 6H9.5C7.61438 6 6.67157 6 6.08579 6.58579C5.5 7.17157 5.5 8.11438 5.5 10L5.50005 16.25H19.4999L19.5 10C19.5 8.11438 19.5 7.17157 18.9142 6.58579C18.3284 6 17.3856 6 15.5 6H13.25V10.9726L13.9306 10.1786C14.2001 9.86408 14.6736 9.82766 14.9881 10.0972C15.3026 10.3668 15.339 10.8403 15.0695 11.1548L13.0695 13.4881C12.927 13.6543 12.719 13.75 12.5 13.75C12.2811 13.75 12.0731 13.6543 11.9306 13.4881L9.93057 11.1548C9.661 10.8403 9.69743 10.3668 10.0119 10.0972C10.3264 9.82766 10.7999 9.86408 11.0695 10.1786L11.75 10.9726V6Z" fill="#4BC937"/>
<path d="M5.5306 17.75H19.4694C19.4181 18.5406 19.281 19.0474 18.9142 19.4142C18.3284 20 17.3856 20 15.5 20H9.5C7.61438 20 6.67157 20 6.08579 19.4142C5.71898 19.0474 5.58186 18.5406 5.5306 17.75Z" fill="#4BC937"/>
<path d="M6.38889 3H18.6111C20.7589 3 22.5 4.79998 22.5 7.02036C22.5 8.30971 21.9129 9.45731 21 10.193L21 9.91053C21.0001 9.0449 21.0002 8.25122 20.9134 7.6056C20.8178 6.89464 20.5929 6.14319 19.9748 5.52514C19.3568 4.90709 18.6054 4.6822 17.8944 4.58661C17.2488 4.49981 16.4551 4.4999 15.5895 4.50001H9.41048C8.54485 4.4999 7.75118 4.49981 7.10556 4.58661C6.3946 4.6822 5.64315 4.90709 5.0251 5.52514C4.40706 6.14319 4.18216 6.89464 4.08657 7.6056C3.99977 8.25122 3.99987 9.04488 3.99997 9.91052L3.99998 10.193C3.08709 9.45727 2.5 8.30969 2.5 7.02036C2.5 4.79998 4.24112 3 6.38889 3Z" fill="#4BC937"/>
</svg>
