<svg width="16" height="17" viewBox="0 0 16 17" fill="none" xmlns="http://www.w3.org/2000/svg">
    <path fill-rule="evenodd" clip-rule="evenodd"
        d="M4.83528 3.3369C5.39606 2.15292 6.60179 1.33325 8.00004 1.33325C9.39829 1.33325 10.604 2.15292 11.1648 3.3369C11.2207 3.33448 11.2769 3.33325 11.3334 3.33325C13.4505 3.33325 15.1667 5.04949 15.1667 7.16659C15.1667 8.6203 14.3576 9.88408 13.1667 10.5338L13.1667 12.5346C13.1667 13.1336 13.1667 13.6331 13.1134 14.0296C13.0572 14.4481 12.9334 14.826 12.6297 15.1296C12.3261 15.4333 11.9482 15.557 11.5297 15.6133C11.1332 15.6666 10.6337 15.6666 10.0347 15.6666H5.96538C5.36639 15.6666 4.86691 15.6666 4.47039 15.6133C4.05186 15.557 3.67399 15.4333 3.37034 15.1296C3.0667 14.826 2.94292 14.4481 2.88665 14.0296C2.83334 13.6331 2.83335 13.1336 2.83337 12.5346L2.83337 10.5338C1.64251 9.88408 0.833374 8.6203 0.833374 7.16659C0.833374 5.04949 2.54962 3.33325 4.66671 3.33325C4.72317 3.33325 4.77936 3.33448 4.83528 3.3369ZM4.53512 4.33625C3.0314 4.405 1.83337 5.64588 1.83337 7.16659C1.83337 8.32766 2.53183 9.32671 3.53356 9.76438C3.71567 9.84395 3.83337 10.0238 3.83337 10.2226V11.9999H12.1667L12.1667 10.2226C12.1667 10.0238 12.2844 9.84395 12.4665 9.76438C13.4682 9.32671 14.1667 8.32766 14.1667 7.16659C14.1667 5.64588 12.9687 4.405 11.465 4.33625C11.4881 4.49875 11.5 4.6647 11.5 4.83325V5.16659C11.5 5.44273 11.2762 5.66659 11 5.66659C10.7239 5.66659 10.5 5.44273 10.5 5.16659V4.83325C10.5 4.55135 10.4536 4.28133 10.3683 4.02982C10.0335 3.0426 9.09896 2.33325 8.00004 2.33325C6.90112 2.33325 5.96658 3.0426 5.6318 4.02982C5.5465 4.28133 5.50004 4.55135 5.50004 4.83325V5.16659C5.50004 5.44273 5.27618 5.66659 5.00004 5.66659C4.7239 5.66659 4.50004 5.44273 4.50004 5.16659V4.83325C4.50004 4.6647 4.51199 4.49875 4.53512 4.33625ZM12.1655 12.9999H3.83458C3.8374 13.3795 3.84676 13.666 3.87773 13.8963C3.91909 14.204 3.99057 14.3356 4.07745 14.4225C4.16433 14.5094 4.29599 14.5809 4.60364 14.6222C4.92566 14.6655 5.35737 14.6666 6.00004 14.6666H10C10.6427 14.6666 11.0744 14.6655 11.3964 14.6222C11.7041 14.5809 11.8358 14.5094 11.9226 14.4225C12.0095 14.3356 12.081 14.204 12.1223 13.8963C12.1533 13.666 12.1627 13.3795 12.1655 12.9999Z"
        fill="#272D37" />
</svg>
