<svg width="16" height="17" viewBox="0 0 16 17" fill="none" xmlns="http://www.w3.org/2000/svg">
    <path fill-rule="evenodd" clip-rule="evenodd"
        d="M7.8582 2.52342C7.69795 2.76129 7.51505 3.13334 7.24058 3.69578L5.73883 6.77309C5.60638 7.04453 5.49129 7.28038 5.3812 7.45956C5.26847 7.64305 5.1198 7.83873 4.88822 7.95527C4.67926 8.06043 4.44383 8.09906 4.21081 8.06224C3.94862 8.0208 3.74966 7.87188 3.59389 7.72786C3.44288 7.58823 3.27385 7.39578 3.08213 7.1775L3.06554 7.15861C2.65966 6.69655 2.38034 6.37948 2.164 6.17724C2.05695 6.07716 1.98657 6.02585 1.94332 6.00167C1.94312 6.00156 1.94292 6.00145 1.94273 6.00134C1.92021 6.00955 1.89407 6.02582 1.86826 6.0556C1.86824 6.05558 1.86832 6.05557 1.86826 6.0556C1.86999 6.0565 1.83098 6.13577 1.83339 6.44617C1.83592 6.77104 1.87802 7.22321 1.93895 7.87061L2.09174 9.4941C2.21874 10.8434 2.31077 11.8132 2.46507 12.5485C2.6176 13.2754 2.81849 13.7046 3.11755 14.0106C3.40925 14.309 3.78395 14.4797 4.40844 14.571C5.05332 14.6653 5.89659 14.6666 7.09333 14.6666H8.90656C10.1033 14.6666 10.9466 14.6653 11.5914 14.571C12.2159 14.4797 12.5906 14.309 12.8823 14.0106C13.1814 13.7046 13.3823 13.2754 13.5348 12.5485C13.6891 11.8132 13.7811 10.8434 13.9081 9.49411L14.0609 7.87061C14.1219 7.22321 14.164 6.77104 14.1665 6.44617C14.1689 6.13577 14.1298 6.05648 14.1315 6.05558C14.1318 6.05544 14.133 6.05713 14.1354 6.0601C14.1084 6.02744 14.0808 6.00996 14.0572 6.00134C14.057 6.00145 14.0568 6.00156 14.0566 6.00167C14.0133 6.02585 13.9429 6.07716 13.8359 6.17724C13.6195 6.37948 13.3402 6.69655 12.9343 7.15861L12.9178 7.17749C12.726 7.39578 12.557 7.58823 12.406 7.72786C12.2502 7.87188 12.0513 8.0208 11.7891 8.06224C11.5561 8.09906 11.3206 8.06043 11.1117 7.95527C10.8801 7.83873 10.7314 7.64305 10.6187 7.45956C10.5086 7.28037 10.3935 7.04451 10.261 6.77305L8.7593 3.69577C8.48483 3.13334 8.30193 2.76129 8.14169 2.52342C8.07382 2.42268 8.02719 2.37231 7.99994 2.34805C7.9727 2.37231 7.92606 2.42268 7.8582 2.52342ZM8.02932 2.32722C8.0293 2.32754 8.02722 2.32881 8.02315 2.3301C8.02731 2.32756 8.02935 2.32691 8.02932 2.32722ZM7.97673 2.3301C7.97267 2.32881 7.97058 2.32754 7.97056 2.32722C7.97054 2.32691 7.97257 2.32756 7.97673 2.3301ZM7.02884 1.9647C7.22996 1.66616 7.52904 1.33325 7.99994 1.33325C8.47084 1.33325 8.76992 1.66615 8.97105 1.9647C9.17517 2.2677 9.38818 2.70424 9.64072 3.2218L11.1492 6.31297C11.2953 6.6122 11.3892 6.8034 11.4707 6.93606C11.5273 7.02813 11.5582 7.05777 11.5654 7.06405C11.5863 7.07373 11.6057 7.07683 11.6236 7.07557C11.6351 7.06915 11.6675 7.04869 11.7271 6.99362C11.8352 6.89371 11.9697 6.74153 12.183 6.49865L12.2024 6.47657C12.5842 6.04192 12.8961 5.68687 13.153 5.44673C13.2847 5.3236 13.4231 5.21012 13.5686 5.12878C13.7166 5.04608 13.9024 4.97962 14.1144 4.99824C14.4297 5.02594 14.7096 5.18544 14.9058 5.4225C15.1425 5.70849 15.1691 6.10831 15.1665 6.45394C15.1636 6.82731 15.1169 7.32284 15.059 7.93858L14.9007 9.61981C14.7774 10.9302 14.6808 11.9566 14.5135 12.7539C14.343 13.5662 14.0868 14.209 13.5974 14.7096C13.1007 15.2177 12.4904 15.4502 11.7361 15.5605C11.0106 15.6666 10.0942 15.6666 8.94619 15.6666H7.05369C5.90572 15.6666 4.98927 15.6666 4.26374 15.5605C3.50949 15.4502 2.89917 15.2177 2.40246 14.7096C1.91311 14.209 1.65685 13.5662 1.48639 12.7539C1.31907 11.9566 1.22248 10.9302 1.09915 9.6198L0.940926 7.93859C0.882969 7.32285 0.836326 6.82732 0.833422 6.45394C0.830734 6.10831 0.857375 5.70849 1.09408 5.4225C1.29029 5.18544 1.57014 5.02594 1.88552 4.99824C2.09751 4.97962 2.28329 5.04608 2.43125 5.12878C2.57675 5.21012 2.71519 5.3236 2.84691 5.44673C3.10378 5.68687 3.41565 6.04191 3.79744 6.47656L3.81684 6.49865C4.03019 6.74153 4.16472 6.89371 4.27278 6.99362C4.33235 7.04869 4.36474 7.06915 4.3763 7.07557C4.3942 7.07683 4.41363 7.07373 4.43446 7.06405C4.4417 7.05777 4.4726 7.02813 4.52917 6.93606C4.61068 6.80341 4.70462 6.6122 4.85064 6.31298L6.35916 3.22181C6.6117 2.70425 6.82472 2.2677 7.02884 1.9647Z"
        fill="#FFAA4D" />
</svg>
