<svg width="25" height="24" viewBox="0 0 25 24" fill="none" xmlns="http://www.w3.org/2000/svg">
<path d="M3.5 7C3.5 5.11438 3.5 4.17157 4.08579 3.58579C4.67157 3 5.61438 3 7.5 3H13.5C15.3856 3 16.3284 3 16.9142 3.58579C17.0956 3.76717 17.2208 3.98277 17.3073 4.25H18.5C21.1234 4.25 23.25 6.37665 23.25 9C23.25 11.6234 21.1234 13.75 18.5 13.75H17.5V12.25H18.5C20.2949 12.25 21.75 10.7949 21.75 9C21.75 7.20507 20.2949 5.75 18.5 5.75H17.4908C17.5 6.11353 17.5 6.52712 17.5 7V12.25H3.50002L3.5 7Z" fill="#FF9922"/>
<path d="M3.51095 13.75H17.4891C17.4528 15.4553 17.2963 16.4463 16.6213 17.1213C15.7426 18 14.3284 18 11.5 18H9.5C6.67157 18 5.25736 18 4.37868 17.1213C3.7037 16.4463 3.54722 15.4553 3.51095 13.75Z" fill="#FF9922"/>
<path fill-rule="evenodd" clip-rule="evenodd" d="M1.75 21C1.75 20.5858 2.08579 20.25 2.5 20.25L22.5 20.25C22.9142 20.25 23.25 20.5858 23.25 21C23.25 21.4142 22.9142 21.75 22.5 21.75L2.5 21.75C2.08579 21.75 1.75 21.4142 1.75 21Z" fill="#FF9922"/>
</svg>
