<svg width="20" height="20" viewBox="0 0 20 20" fill="none" xmlns="http://www.w3.org/2000/svg">
    <path fill-rule="evenodd" clip-rule="evenodd"
        d="M9.99935 2.29163C5.74215 2.29163 2.29102 5.74276 2.29102 9.99996C2.29102 14.2572 5.74215 17.7083 9.99935 17.7083C14.2565 17.7083 17.7077 14.2572 17.7077 9.99996C17.7077 5.74276 14.2565 2.29163 9.99935 2.29163ZM1.04102 9.99996C1.04102 5.05241 5.0518 1.04163 9.99935 1.04163C14.9469 1.04163 18.9577 5.05241 18.9577 9.99996C18.9577 14.9475 14.9469 18.9583 9.99935 18.9583C5.0518 18.9583 1.04102 14.9475 1.04102 9.99996ZM9.99935 4.37496C10.3445 4.37496 10.6243 4.65478 10.6243 4.99996V5.2639C11.983 5.50718 13.1243 6.52797 13.1243 7.91663C13.1243 8.2618 12.8445 8.54163 12.4993 8.54163C12.1542 8.54163 11.8743 8.2618 11.8743 7.91663C11.8743 7.21307 11.1464 6.45829 9.99935 6.45829C8.85228 6.45829 8.12435 7.21307 8.12435 7.91663C8.12435 8.62018 8.85228 9.37496 9.99935 9.37496C11.6137 9.37496 13.1243 10.4857 13.1243 12.0833C13.1243 13.472 11.983 14.4927 10.6243 14.736V15C10.6243 15.3451 10.3445 15.625 9.99935 15.625C9.65417 15.625 9.37435 15.3451 9.37435 15V14.736C8.01566 14.4927 6.87435 13.472 6.87435 12.0833C6.87435 11.7381 7.15417 11.4583 7.49935 11.4583C7.84453 11.4583 8.12435 11.7381 8.12435 12.0833C8.12435 12.7868 8.85228 13.5416 9.99935 13.5416C11.1464 13.5416 11.8743 12.7868 11.8743 12.0833C11.8743 11.3797 11.1464 10.625 9.99935 10.625C8.385 10.625 6.87435 9.51425 6.87435 7.91663C6.87435 6.52797 8.01566 5.50718 9.37435 5.2639V4.99996C9.37435 4.65478 9.65417 4.37496 9.99935 4.37496Z"
        fill="#37C976" />
</svg>
