<svg width="200" height="201" viewBox="0 0 200 201" fill="none" xmlns="http://www.w3.org/2000/svg">
    <path
        d="M75.1105 7.31882C75.3444 5.6196 72.9463 4.22155 71.1439 4.07642C70.2845 4.00727 69.3919 4.1383 68.5775 3.85486C66.8137 3.24023 66.109 0.960955 64.3875 0.235317C63.1004 -0.307434 61.6191 0.175719 60.3717 0.803544C59.1242 1.43137 57.8913 2.22161 56.4978 2.31078C55.2854 2.38857 53.9688 1.93863 52.9083 2.53097C52.118 2.97227 51.704 3.88307 50.9752 4.42036C50.2623 4.94582 49.3329 5.05729 48.4484 5.10551C47.564 5.15373 46.6487 5.16238 45.8434 5.53134C45.0382 5.89985 44.3721 6.7515 44.5391 7.6209L75.1105 7.31882Z"
        fill="#C3B8FF" fill-opacity="0.18" />
    <path
        d="M195.904 107.727C196.293 104.901 192.305 102.576 189.308 102.335C187.879 102.22 186.394 102.438 185.04 101.966C182.107 100.944 180.935 97.1542 178.073 95.9468C175.933 95.0442 173.469 95.8476 171.395 96.8917C169.321 97.9358 167.271 99.2497 164.953 99.398C162.937 99.5272 160.748 98.7793 158.984 99.7642C157.669 100.498 156.981 102.013 155.77 102.906C154.585 103.78 153.039 103.965 151.568 104.045C150.097 104.125 148.575 104.14 147.236 104.753C145.897 105.366 144.789 106.782 145.067 108.228L195.904 107.727Z"
        fill="#C3B8FF" fill-opacity="0.18" />
    <path
        d="M44.2215 38.7769C44.5191 36.615 41.4682 34.8366 39.1757 34.6519C38.0825 34.5637 36.947 34.7311 35.911 34.3699C33.6668 33.5878 32.7706 30.6884 30.5809 29.7649C28.944 29.0743 27.0592 29.6889 25.4723 30.4878C23.8855 31.2867 22.3168 32.2917 20.5439 32.4054C19.0016 32.5041 17.327 31.9323 15.9776 32.6857C14.9722 33.2471 14.4453 34.4058 13.5186 35.0891C12.6119 35.7579 11.4295 35.8994 10.3044 35.9608C9.17936 36.0222 8.01469 36.0331 6.99061 36.5022C5.96607 36.9712 5.11896 38.0545 5.33142 39.1604L44.2215 38.7769Z"
        fill="#C3B8FF" fill-opacity="0.18" />
    <path d="M164.997 156.54L154.875 200.486L159.154 200.476L169.299 156.954L164.997 156.54Z" fill="#C3B8FF" fill-opacity="0.18" />
    <path d="M183.461 156.54L193.618 200.486H197.684L187.857 156.54H183.461Z" fill="#C3B8FF" fill-opacity="0.18" />
    <path d="M158.165 123.533L163.928 153.789H170.477L164.321 123.533H158.165Z" fill="#C3B8FF" fill-opacity="0.18" />
    <path d="M57.7894 156.54L49.5339 200.486H53.7367L62.3611 156.54H57.7894Z" fill="#C3B8FF" fill-opacity="0.18" />
    <path d="M75.1492 156.54L84.5875 200.246H88.7398L79.6263 156.54H75.1492Z" fill="#C3B8FF" fill-opacity="0.18" />
    <path d="M50.9575 123.533L56.7207 153.789H63.2697L57.1138 123.533H50.9575Z" fill="#C3B8FF" fill-opacity="0.18" />
    <path d="M37.9906 120.783L39.1694 126.284H170.671L169.137 120.783H37.9906Z" fill="#C3B8FF" fill-opacity="0.18" />
    <path d="M40.5042 131.466L41.8922 136.967H172.505L171.317 131.466H40.5042Z" fill="#C3B8FF" fill-opacity="0.18" />
    <path d="M43.0987 142.526L44.393 148.026H174.601L173.37 142.526H43.0987Z" fill="#C3B8FF" fill-opacity="0.18" />
    <path d="M193.462 153.79H53.0534V159.291H193.462V153.79Z" fill="#C3B8FF" fill-opacity="0.18" />
    <path
        d="M20.2128 104.6C17.9831 104.6 15.985 103.45 14.8635 101.521C13.7389 99.587 13.7321 97.2736 14.8444 95.3328L32.5814 64.3933C33.6937 62.4525 35.6937 61.2897 37.9311 61.2828C37.9379 61.2828 37.9443 61.2828 37.9511 61.2828C40.1803 61.2828 42.1789 62.432 43.3004 64.361L61.2261 95.1913C62.3503 97.1253 62.3576 99.4391 61.2448 101.38C60.132 103.321 58.1325 104.484 55.8951 104.49L20.2314 104.6C20.226 104.6 20.2196 104.6 20.2128 104.6ZM37.9511 63.1308C37.9466 63.1308 37.9416 63.1308 37.9375 63.1308C36.3684 63.1358 34.9657 63.9511 34.1851 65.3123L16.4481 96.2518C15.6679 97.613 15.6729 99.2358 16.4613 100.592C17.2479 101.945 18.6496 102.751 20.2132 102.751C20.2178 102.751 20.2223 102.751 20.2269 102.751L55.8896 102.642C57.4592 102.637 58.8618 101.822 59.642 100.46C60.4222 99.0993 60.4172 97.4765 59.6288 96.1198L41.7026 65.2895C40.9164 63.937 39.5152 63.1308 37.9511 63.1308Z"
        fill="#C3B8FF" fill-opacity="0.18" />
    <path d="M34.4706 76.5166L35.3009 88.0549C35.3687 88.9985 36.1294 89.7432 37.0738 89.7914C38.0702 89.8419 38.9318 89.1026 39.0328 88.1104L40.2148 76.4966C40.3044 75.6171 39.6029 74.8583 38.7194 74.8783L35.9037 74.942C35.0634 74.9602 34.4101 75.6786 34.4706 76.5166Z" fill="#C3B8FF"
        fill-opacity="0.18" />
    <path d="M40.1898 96.2584C39.7121 97.7392 38.1243 98.5531 36.6435 98.075C35.1622 97.5973 34.3487 96.0095 34.8264 94.5287C35.3041 93.0474 36.8919 92.2339 38.3732 92.7116C39.854 93.1893 40.6675 94.7775 40.1898 96.2584Z" fill="#C3B8FF" fill-opacity="0.18" />
    <path d="M200 200.431C200 200.496 155.225 200.549 100.005 200.549C44.7653 200.549 0 200.496 0 200.431C0 200.366 44.7653 200.313 100.005 200.313C155.225 200.312 200 200.365 200 200.431Z" fill="#263238" />
    <path d="M130.717 151.623L84.7867 151.595C79.2628 151.591 74.7866 146.884 74.7875 141.079L74.8098 20.0703C74.8107 14.262 79.2932 9.55468 84.8204 9.55786L130.75 9.58607C136.274 9.58971 140.75 14.297 140.749 20.1026L140.726 141.111C140.726 146.92 136.244 151.627 130.717 151.623Z" fill="#263238" />
    <path
        d="M130.703 13.8662L121.797 13.8607C120.603 13.8603 119.635 14.9235 119.635 16.2351L119.634 17.9325C119.634 19.2446 118.666 20.3078 117.472 20.3069L100.114 20.2959C98.9196 20.2955 97.9519 19.2309 97.9519 17.9188L97.9524 16.2214C97.9524 14.9094 96.9843 13.8453 95.79 13.8443L92.6582 13.8421L84.864 13.8375C80.9934 13.8353 77.8538 17.1318 77.8533 21.1999L77.8315 139.313C77.8306 143.379 80.9656 146.676 84.8345 146.678L130.673 146.707C134.543 146.709 137.682 143.412 137.683 139.345L137.705 21.2313C137.706 17.1655 134.571 13.8689 130.703 13.8662Z"
        fill="white" />
    <path d="M90.3543 135.559V138.451C90.3543 138.702 90.0782 138.854 89.8671 138.72L87.5937 137.274C87.3972 137.149 87.3972 136.862 87.5937 136.737L89.8671 135.291C90.0782 135.156 90.3543 135.309 90.3543 135.559Z" fill="#C3B8FF" fill-opacity="0.18" />
    <path d="M109.036 136.979C109.036 138.082 108.144 138.976 107.043 138.976C105.942 138.976 105.05 138.082 105.05 136.979C105.05 135.875 105.942 134.981 107.043 134.981C108.144 134.98 109.036 135.875 109.036 136.979Z" fill="#C3B8FF" fill-opacity="0.18" />
    <path d="M126.174 138.927H124.197C123.727 138.927 123.347 138.546 123.347 138.076V136.091C123.347 135.621 123.727 135.24 124.197 135.24H126.174C126.644 135.24 127.024 135.621 127.024 136.091V138.076C127.024 138.546 126.644 138.927 126.174 138.927Z" fill="#C3B8FF" fill-opacity="0.18" />
    <path d="M129.931 71.3482C132.865 59.1987 125.394 46.9717 113.244 44.0384C101.095 41.1051 88.8676 48.5763 85.9343 60.7257C83.001 72.8752 90.4722 85.1022 102.622 88.0355C114.771 90.9688 126.998 83.4976 129.931 71.3482Z" fill="#C3B8FF" fill-opacity="0.18" />
    <path d="M108.949 76.0158C108.945 77.0485 108.104 77.882 107.071 77.877C106.038 77.872 105.205 77.0313 105.21 75.9985C105.214 74.9658 106.055 74.1323 107.088 74.1374C108.121 74.1419 108.954 74.9831 108.949 76.0158Z" fill="#455A64" />
    <path d="M103.343 73.6123C105.396 71.4563 108.734 71.3904 110.84 73.5136C111.794 74.4758 113.289 72.9959 112.334 72.0332C109.444 69.1206 104.7 69.1379 101.862 72.1183C100.929 73.0978 102.407 74.595 103.343 73.6123Z" fill="#455A64" />
    <path
        d="M96.9911 64.9083C99.8345 62.4503 103.229 60.903 107.03 60.8934C110.797 60.8839 114.512 62.2214 117.272 64.8128C118.257 65.7386 119.755 64.2614 118.766 63.3324C115.605 60.3639 111.366 58.7793 107.039 58.7902C102.666 58.8011 98.7781 60.5891 95.5107 63.4138C94.4848 64.301 95.9706 65.7905 96.9911 64.9083Z"
        fill="#455A64" />
    <path
        d="M99.4978 69.7317C101.404 67.6708 104.075 66.3801 106.899 66.3159C109.799 66.25 112.599 67.4442 114.616 69.516C115.562 70.4873 117.055 69.0069 116.11 68.0356C113.724 65.5844 110.343 64.1345 106.909 64.2127C103.55 64.2896 100.296 65.775 98.0179 68.2376C97.0994 69.2299 98.5761 70.728 99.4978 69.7317Z"
        fill="#455A64" />
    <path d="M124.737 60.9552C125.289 57.8343 123.207 54.857 120.086 54.3053C116.965 53.7535 113.987 55.8361 113.436 58.957C112.884 62.0779 114.967 65.0552 118.087 65.607C121.208 66.1588 124.186 64.0761 124.737 60.9552Z" fill="#DC143C" />
    <path d="M121.459 58.3518L120.646 57.5386L117.002 61.1824L117.815 61.9956L121.459 58.3518Z" fill="white" />
    <path d="M117.814 57.5406L117.001 58.3539L120.644 61.9977L121.458 61.1844L117.814 57.5406Z" fill="white" />
    <path
        d="M106.418 26.5018C106.705 26.3285 107.01 26.197 107.325 26.1078L107.512 25.2102L109.028 25.1838L109.246 26.0742C109.564 26.1524 109.874 26.273 110.166 26.4363L110.932 25.934L112.023 26.9872L111.548 27.7707C111.722 28.0573 111.853 28.3625 111.942 28.6774L112.84 28.8639L112.866 30.3802L111.976 30.5986C111.898 30.9162 111.777 31.226 111.614 31.5185L112.116 32.2851L111.063 33.376L110.28 32.9011C109.993 33.0744 109.688 33.2059 109.373 33.2951L109.186 34.1922L107.67 34.2191L107.451 33.3287C107.134 33.2505 106.824 33.1299 106.531 32.9666L105.765 33.4689L104.674 32.4157L105.149 31.6322C104.976 31.3456 104.844 31.0404 104.755 30.7255L103.858 30.5385L103.832 29.0222L104.722 28.8038C104.8 28.4863 104.921 28.1765 105.084 27.8839L104.582 27.1178L105.635 26.0269L106.418 26.5018ZM107.226 28.5218C106.602 29.1683 106.62 30.1978 107.266 30.822C107.913 31.4462 108.942 31.428 109.567 30.7815C110.191 30.135 110.173 29.105 109.526 28.4813C108.88 27.8576 107.85 27.8753 107.226 28.5218Z"
        fill="#C3B8FF" fill-opacity="0.18" />
    <path
        d="M87.1784 29.9002C86.6998 29.9002 86.0933 29.8893 85.4869 29.8784C84.7631 29.8652 84.0392 29.8529 83.5361 29.8579C83.5352 29.8579 83.5342 29.8579 83.5333 29.8579C83.4091 29.8579 83.3072 29.7578 83.3059 29.6332C83.3045 29.5076 83.405 29.4048 83.5306 29.403C84.037 29.3966 84.7662 29.4103 85.4951 29.4235C86.2189 29.4371 86.9432 29.4498 87.4459 29.4439C87.4468 29.4439 87.4477 29.4439 87.4486 29.4439C87.5728 29.4439 87.6747 29.544 87.6761 29.6687C87.6774 29.7942 87.5769 29.8975 87.4513 29.8989C87.3667 29.8998 87.2753 29.9002 87.1784 29.9002Z"
        fill="#263238" />
    <path
        d="M84.92 31.4193C84.8572 31.4193 84.7949 31.3934 84.7498 31.3429L83.3636 29.7815C83.2854 29.6932 83.2872 29.559 83.3691 29.4735L84.7207 28.0541C84.8081 27.9635 84.9523 27.9604 85.0424 28.0459C85.1334 28.1323 85.137 28.2765 85.0506 28.3675L83.8431 29.6355L85.0906 31.0403C85.1739 31.1341 85.1657 31.2778 85.0715 31.3615C85.0278 31.4002 84.9737 31.4193 84.92 31.4193Z"
        fill="#263238" />
    <path d="M131.813 28.5696C132.204 28.5696 132.52 28.2531 132.52 27.8626C132.52 27.4722 132.204 27.1556 131.813 27.1556C131.423 27.1556 131.106 27.4722 131.106 27.8626C131.106 28.2531 131.423 28.5696 131.813 28.5696Z" fill="#263238" />
    <path d="M132.52 30.0919C132.52 30.4822 132.203 30.7989 131.813 30.7989C131.423 30.7989 131.106 30.4822 131.106 30.0919C131.106 29.7015 131.423 29.3849 131.813 29.3849C132.203 29.3849 132.52 29.7015 132.52 30.0919Z" fill="#263238" />
    <path d="M131.813 33.0281C132.204 33.0281 132.52 32.7116 132.52 32.3211C132.52 31.9307 132.204 31.6141 131.813 31.6141C131.423 31.6141 131.106 31.9307 131.106 32.3211C131.106 32.7116 131.423 33.0281 131.813 33.0281Z" fill="#263238" />
    <path d="M92.6095 97.1726C92.6095 97.2381 91.1646 97.2909 89.383 97.2909C87.6006 97.2909 86.1561 97.2377 86.1561 97.1726C86.1561 97.1071 87.6006 97.0543 89.383 97.0543C91.1646 97.0543 92.6095 97.1076 92.6095 97.1726Z" fill="#263238" />
    <path d="M104.197 104.725C104.197 104.79 100.231 104.843 95.3396 104.843C90.4462 104.843 86.4809 104.79 86.4809 104.725C86.4809 104.659 90.4462 104.606 95.3396 104.606C100.231 104.606 104.197 104.659 104.197 104.725Z" fill="#263238" />
    <path d="M104.197 112.227C104.197 112.293 100.231 112.346 95.3396 112.346C90.4462 112.346 86.4809 112.292 86.4809 112.227C86.4809 112.162 90.4462 112.109 95.3396 112.109C100.231 112.109 104.197 112.162 104.197 112.227Z" fill="#263238" />
    <path d="M127.619 107.558H121.136C119.571 107.558 118.303 106.29 118.303 104.725C118.303 103.161 119.571 101.892 121.136 101.892H127.619C129.183 101.892 130.452 103.161 130.452 104.725C130.452 106.289 129.184 107.558 127.619 107.558Z" fill="#C3B8FF" fill-opacity="0.18" />
    <path d="M123.475 104.725C123.475 106.036 122.413 107.098 121.102 107.098C119.791 107.098 118.729 106.036 118.729 104.725C118.729 103.414 119.791 102.352 121.102 102.352C122.412 102.352 123.475 103.414 123.475 104.725Z" fill="#C3B8FF" fill-opacity="0.18" />
    <path d="M127.619 115.061H121.136C119.571 115.061 118.303 113.792 118.303 112.228C118.303 110.663 119.571 109.395 121.136 109.395H127.619C129.183 109.395 130.452 110.663 130.452 112.228C130.452 113.792 129.184 115.061 127.619 115.061Z" fill="#C3B8FF" fill-opacity="0.18" />
    <path d="M121.102 114.6C122.412 114.6 123.475 113.538 123.475 112.227C123.475 110.917 122.412 109.854 121.102 109.854C119.791 109.854 118.729 110.917 118.729 112.227C118.729 113.538 119.791 114.6 121.102 114.6Z" fill="#C3B8FF" fill-opacity="0.18" />
    <path d="M104.197 119.781C104.197 119.846 100.231 119.899 95.3396 119.899C90.4462 119.899 86.4809 119.846 86.4809 119.781C86.4809 119.715 90.4462 119.662 95.3396 119.662C100.231 119.662 104.197 119.715 104.197 119.781Z" fill="#263238" />
    <path d="M127.619 123.453H121.136C119.571 123.453 118.303 122.185 118.303 120.62C118.303 119.056 119.571 117.787 121.136 117.787H127.619C129.183 117.787 130.452 119.056 130.452 120.62C130.452 122.185 129.184 123.453 127.619 123.453Z" fill="#C3B8FF" fill-opacity="0.18" />
    <path d="M121.102 122.993C122.412 122.993 123.475 121.93 123.475 120.62C123.475 119.309 122.412 118.247 121.102 118.247C119.791 118.247 118.729 119.309 118.729 120.62C118.729 121.93 119.791 122.993 121.102 122.993Z" fill="#C3B8FF" fill-opacity="0.18" />
    <path d="M181.744 21.8262C182.397 17.7838 179.649 13.9777 175.607 13.325C171.564 12.6723 167.758 15.4202 167.105 19.4625C166.453 23.5049 169.201 27.311 173.243 27.9637C177.285 28.6164 181.091 25.8685 181.744 21.8262Z" fill="#FEB63D" />
    <path d="M173.364 37.2182C173.321 37.2182 173.286 35.8488 173.286 34.1601C173.286 32.4709 173.321 31.1019 173.364 31.1019C173.408 31.1019 173.443 32.4709 173.443 34.1601C173.443 35.8488 173.408 37.2182 173.364 37.2182Z" fill="#FEB63D" />
    <path d="M169.092 29.3777C169.129 29.3991 168.432 30.6766 167.535 32.2307C166.637 33.7852 165.879 35.0272 165.842 35.0058C165.805 34.9845 166.502 33.707 167.4 32.1524C168.297 30.5988 169.055 29.3563 169.092 29.3777Z" fill="#FEB63D" />
    <path d="M164.707 26.6476C164.734 26.6812 163.958 27.3423 162.975 28.1234C161.992 28.905 161.173 29.511 161.146 29.4773C161.12 29.4437 161.895 28.7831 162.878 28.0015C163.862 27.2199 164.68 26.6139 164.707 26.6476Z" fill="#FEB63D" />
    <path
        d="M180.761 34.2056C180.739 34.2092 180.672 33.9199 180.565 33.4531C180.459 32.9864 180.307 32.3431 180.118 31.6383C179.928 30.9336 179.736 30.3013 179.594 29.8436C179.453 29.3864 179.365 29.1025 179.386 29.0947C179.405 29.0875 179.53 29.3577 179.699 29.8081C179.868 30.258 180.078 30.8891 180.269 31.5979C180.459 32.3067 180.594 32.9577 180.673 33.4317C180.753 33.9058 180.781 34.202 180.761 34.2056Z"
        fill="#FEB63D" />
    <path d="M188.281 28.8696C188.253 28.9019 187.272 28.0907 186.09 27.0575C184.907 26.0239 183.972 25.1604 184.001 25.1276C184.029 25.0953 185.011 25.9065 186.193 26.9397C187.375 27.9729 188.31 28.8368 188.281 28.8696Z" fill="#FEB63D" />
    <path
        d="M191.162 21.5358C191.157 21.5581 190.817 21.4985 190.268 21.4071C189.718 21.3156 188.959 21.1978 188.116 21.1009C187.272 21.0044 186.506 20.9471 185.95 20.9116C185.395 20.8761 185.05 20.8575 185.05 20.8343C185.05 20.8143 185.396 20.7938 185.955 20.8011C186.513 20.8083 187.286 20.8484 188.134 20.9453C188.981 21.0431 189.743 21.1787 190.288 21.2983C190.834 21.4184 191.167 21.5162 191.162 21.5358Z"
        fill="#FEB63D" />
    <path d="M191.171 14.3249C191.181 14.3668 189.576 14.794 187.586 15.2785C185.596 15.7635 183.974 16.1224 183.964 16.0806C183.954 16.0387 185.558 15.612 187.549 15.127C189.539 14.642 191.161 14.2826 191.171 14.3249Z" fill="#FEB63D" />
    <path d="M182.793 5.92247C182.829 5.94612 182.061 7.17129 181.078 8.65851C180.094 10.1462 179.268 11.3322 179.232 11.3086C179.196 11.2849 179.964 10.0602 180.948 8.57253C181.931 7.08531 182.757 5.89881 182.793 5.92247Z" fill="#FEB63D" />
    <path
        d="M174.478 4.16785C174.5 4.16922 174.498 4.55774 174.489 5.18556C174.48 5.81339 174.468 6.68006 174.469 7.63772C174.47 8.59538 174.484 9.46251 174.495 10.0903C174.505 10.7182 174.508 11.1071 174.486 11.108C174.465 11.1094 174.423 10.7223 174.384 10.0944C174.345 9.4666 174.313 8.59811 174.312 7.63772C174.311 6.67778 174.341 5.80929 174.379 5.18147C174.416 4.55364 174.458 4.16649 174.478 4.16785Z"
        fill="#FEB63D" />
    <path d="M168.182 12.0097C168.145 12.032 167.364 10.8209 166.437 9.30503C165.511 7.78824 164.79 6.54124 164.826 6.51849C164.863 6.4962 165.644 7.70681 166.57 9.2236C167.497 10.7395 168.219 11.9869 168.182 12.0097Z" fill="#FEB63D" />
    <path
        d="M164.421 15.2061C164.416 15.2266 164.115 15.1825 163.632 15.081C163.15 14.98 162.489 14.8181 161.767 14.6056C161.046 14.3927 160.403 14.1693 159.943 13.9928C159.483 13.8163 159.206 13.6893 159.213 13.6702C159.221 13.6493 159.511 13.7394 159.98 13.8886C160.447 14.0383 161.094 14.2439 161.812 14.4559C162.529 14.6675 163.184 14.8454 163.658 14.9737C164.132 15.1024 164.425 15.1843 164.421 15.2061Z"
        fill="#FEB63D" />
    <path d="M162.777 20.9025C162.782 20.9453 161.722 21.0827 160.411 21.2087C159.1 21.3347 158.034 21.402 158.03 21.3593C158.026 21.3165 159.085 21.1796 160.396 21.0536C161.707 20.9271 162.773 20.8597 162.777 20.9025Z" fill="#FEB63D" />
    <path d="M157.722 153.062C159.934 168.814 162.146 184.565 164.358 200.317L166.085 200.373C164.984 184.323 163.811 167.953 157.722 153.062Z" fill="#455A64" />
    <path d="M176.152 150.849C171.516 155.926 169.652 162.911 168.478 169.686C166.813 179.293 166.662 190.636 167.161 200.374L169.583 200.427C168.602 183.608 170.876 166.849 176.152 150.849Z" fill="#455A64" />
    <path
        d="M158.942 181.018C158.409 178.678 157.8 176.296 156.464 174.302C154.658 171.608 151.717 169.904 148.758 168.578C145.798 167.252 142.685 166.191 140.012 164.355C142.995 169.247 149.766 170.549 153.215 175.124C154.931 177.401 155.643 180.256 156.315 183.027C157.782 189.067 158.684 194.295 160.15 200.335H162.112C161.465 193.771 160.406 187.45 158.942 181.018Z"
        fill="#455A64" />
    <path d="M171.352 200.373C171.352 200.373 173.014 181.605 174.246 178.16C175.478 174.714 187.127 165.193 187.015 165.641C186.904 166.089 178.279 176.506 177.047 178.634C175.815 180.762 173.686 200.373 173.686 200.373H171.352Z" fill="#455A64" />
    <path d="M116.294 180.747C117.225 181.081 117.945 181.875 118.34 182.781C118.734 183.688 118.83 184.701 118.783 185.689C118.691 187.6 117.738 189.586 116.675 191.177C114.987 189.887 114.461 187.478 114.271 186.239C113.971 184.281 114.617 180.561 116.294 180.747Z" fill="#735BF2" />
    <path
        d="M118.736 194.188C118.411 193.132 118.78 191.927 119.556 191.14C120.331 190.353 121.461 189.968 122.566 189.98C123.076 189.986 123.635 190.099 123.954 190.498C124.251 190.872 124.256 191.42 124.063 191.857C123.869 192.293 123.508 192.634 123.121 192.913C121.793 193.872 120.332 194.556 118.736 194.188Z"
        fill="#735BF2" />
    <path
        d="M117.065 200.139C117.056 200.137 117.068 199.997 117.097 199.746C117.129 199.468 117.171 199.11 117.222 198.68C117.341 197.788 117.486 196.512 118.091 195.243C118.686 193.978 119.573 193.017 120.34 192.519C120.72 192.265 121.057 192.106 121.296 192.019C121.414 191.971 121.511 191.949 121.575 191.929C121.64 191.911 121.674 191.903 121.676 191.908C121.689 191.938 121.131 192.077 120.395 192.599C119.657 193.109 118.802 194.058 118.216 195.302C117.623 196.545 117.463 197.804 117.319 198.693C117.251 199.141 117.196 199.504 117.151 199.753C117.105 200.003 117.074 200.14 117.065 200.139Z"
        fill="#263238" />
    <path
        d="M116.052 183.623C116.057 183.623 116.067 183.681 116.083 183.792C116.099 183.918 116.119 184.08 116.144 184.279C116.194 184.703 116.259 185.316 116.333 186.075C116.481 187.592 116.656 189.691 116.797 192.012C116.938 194.335 117.018 196.44 117.054 197.963C117.072 198.725 117.082 199.342 117.083 199.768C117.083 199.97 117.082 200.132 117.082 200.259C117.08 200.371 117.077 200.43 117.072 200.43C117.067 200.43 117.061 200.372 117.053 200.26C117.047 200.133 117.039 199.971 117.029 199.77C117.011 199.327 116.986 198.715 116.956 197.967C116.894 196.445 116.799 194.342 116.659 192.021C116.518 189.701 116.358 187.602 116.235 186.083C116.175 185.337 116.125 184.727 116.09 184.284C116.076 184.084 116.064 183.921 116.055 183.795C116.048 183.683 116.048 183.624 116.052 183.623Z"
        fill="#263238" />
    <path d="M116.047 195.523C115.534 193.251 113.852 191.276 111.69 190.408C111.14 190.186 110.432 190.065 110.019 190.49C109.605 190.917 109.75 191.624 110.001 192.163C111.045 194.403 113.554 195.87 116.019 195.681" fill="#735BF2" />
    <path
        d="M112.066 192.191C112.07 192.182 112.193 192.227 112.415 192.317C112.526 192.361 112.662 192.415 112.811 192.496C112.96 192.576 113.14 192.652 113.319 192.77C113.501 192.882 113.704 193 113.904 193.154C114.113 193.296 114.318 193.47 114.533 193.655C114.953 194.035 115.38 194.493 115.755 195.032C116.125 195.573 116.404 196.135 116.608 196.664C116.701 196.932 116.791 197.186 116.846 197.432C116.916 197.675 116.951 197.907 116.987 198.118C117.03 198.329 117.033 198.523 117.051 198.692C117.07 198.861 117.068 199.007 117.067 199.127C117.065 199.366 117.059 199.497 117.049 199.497C117.018 199.498 117.038 198.968 116.891 198.135C116.849 197.928 116.809 197.7 116.735 197.462C116.677 197.221 116.584 196.972 116.489 196.71C116.282 196.193 116.005 195.643 115.641 195.111C115.273 194.583 114.856 194.13 114.447 193.751C114.238 193.566 114.039 193.392 113.836 193.248C113.641 193.092 113.444 192.971 113.267 192.855C112.55 192.406 112.054 192.218 112.066 192.191Z"
        fill="#263238" />
</svg>
