<svg width="16" height="17" viewBox="0 0 16 17" fill="none" xmlns="http://www.w3.org/2000/svg">
    <path fill-rule="evenodd" clip-rule="evenodd"
        d="M2.30968 2.80956C1.33337 3.78587 1.33337 5.35722 1.33337 8.49992C1.33337 11.6426 1.33337 13.214 2.30968 14.1903C3.286 15.1666 4.85734 15.1666 8.00004 15.1666C11.1427 15.1666 12.7141 15.1666 13.6904 14.1903C14.6667 13.214 14.6667 11.6426 14.6667 8.49992C14.6667 5.35722 14.6667 3.78587 13.6904 2.80956C12.7141 1.83325 11.1427 1.83325 8.00004 1.83325C4.85734 1.83325 3.286 1.83325 2.30968 2.80956ZM10.6667 7.16658C11.4031 7.16658 12 6.56963 12 5.83325C12 5.09687 11.4031 4.49992 10.6667 4.49992C9.93033 4.49992 9.33337 5.09687 9.33337 5.83325C9.33337 6.56963 9.93033 7.16658 10.6667 7.16658ZM4.21399 9.23576C4.63005 8.84931 5.27998 8.871 5.66936 9.28433L7.43435 11.1579C7.96732 11.7236 8.8398 11.7998 9.4628 11.3351C9.87155 11.0301 10.4407 11.0648 10.8094 11.4171L12.3213 12.8614C12.521 13.0522 12.8375 13.045 13.0282 12.8453C13.219 12.6456 13.2118 12.3291 13.0121 12.1384L11.5002 10.694C10.7786 10.0046 9.66477 9.9368 8.86485 10.5335C8.64905 10.6945 8.34684 10.6681 8.16222 10.4722L6.39724 8.59862C5.63105 7.78531 4.35215 7.74263 3.53344 8.50305L2.9931 9.00492C2.79077 9.19285 2.7791 9.50921 2.96702 9.71154C3.15495 9.91388 3.47132 9.92555 3.67365 9.73763L4.21399 9.23576Z"
        fill="white" />
</svg>
