<svg width="25" height="25" viewBox="0 0 25 25" fill="none" xmlns="http://www.w3.org/2000/svg">
    <path fill-rule="evenodd" clip-rule="evenodd"
        d="M11.4169 6.63443L10.915 6.27922C10.1986 5.77225 9.34264 5.5 8.46504 5.5H7.85257C7.44838 5.5 7.04009 5.52549 6.65915 5.66059C4.27645 6.50566 2.63749 9.59504 2.75604 16.6026C2.77992 18.0145 3.1103 19.575 4.38423 20.1842C4.78121 20.3741 5.24667 20.5 5.77671 20.5C6.41273 20.5 6.9178 20.3187 7.30763 20.0632C7.71641 19.7953 8.07633 19.4471 8.43612 19.099C8.88071 18.6688 9.32511 18.2389 9.86125 17.9609C10.4452 17.6581 11.0934 17.5 11.7511 17.5H13.7489C14.4066 17.5 15.0548 17.6581 15.6388 17.9609C16.1749 18.2389 16.6193 18.6688 17.0639 19.099C17.4237 19.4471 17.7836 19.7953 18.1924 20.0632C18.5822 20.3187 19.0873 20.5 19.7233 20.5C20.2533 20.5 20.7188 20.3741 21.1158 20.1842C22.3897 19.575 22.7201 18.0145 22.744 16.6026C22.8625 9.59503 21.2235 6.50566 18.8408 5.66059C18.4599 5.52549 18.0516 5.5 17.6474 5.5H17.0349C16.1574 5.5 15.3014 5.77225 14.5851 6.27922L14.0832 6.63441C13.6934 6.91029 13.2276 7.05844 12.75 7.05844C12.2725 7.05844 11.8067 6.91029 11.4169 6.63443ZM17.5 9.5C17.9142 9.5 18.25 9.83579 18.25 10.25C18.25 10.6642 17.9142 11 17.5 11C17.0858 11 16.75 10.6642 16.75 10.25C16.75 9.83579 17.0858 9.5 17.5 9.5ZM8.25 9.75C8.66421 9.75 9 10.0858 9 10.5V11.25H9.75C10.1642 11.25 10.5 11.5858 10.5 12C10.5 12.4142 10.1642 12.75 9.75 12.75H9V13.5C9 13.9142 8.66421 14.25 8.25 14.25C7.83579 14.25 7.5 13.9142 7.5 13.5V12.75H6.75C6.33579 12.75 6 12.4142 6 12C6 11.5858 6.33579 11.25 6.75 11.25H7.5V10.5C7.5 10.0858 7.83579 9.75 8.25 9.75ZM19.75 11.75C19.75 12.1642 19.4142 12.5 19 12.5C18.5858 12.5 18.25 12.1642 18.25 11.75C18.25 11.3358 18.5858 11 19 11C19.4142 11 19.75 11.3358 19.75 11.75ZM16 12.5C16.4142 12.5 16.75 12.1642 16.75 11.75C16.75 11.3358 16.4142 11 16 11C15.5858 11 15.25 11.3358 15.25 11.75C15.25 12.1642 15.5858 12.5 16 12.5ZM18.25 13.25C18.25 12.8358 17.9142 12.5 17.5 12.5C17.0858 12.5 16.75 12.8358 16.75 13.25C16.75 13.6642 17.0858 14 17.5 14C17.9142 14 18.25 13.6642 18.25 13.25Z"
        fill="#5992FB" />
</svg>
