<svg width="25" height="25" viewBox="0 0 25 25" fill="none" xmlns="http://www.w3.org/2000/svg">
    <path
        d="M8.63729 5.57916C8.4758 5.3117 8.30626 5.06198 8.1378 4.8346C9.29232 3.99515 10.7133 3.5 12.25 3.5C13.57 3.5 14.8047 3.86536 15.8584 4.50047C15.8432 4.58959 15.8217 4.69054 15.7919 4.80292C15.6863 5.20203 15.5201 5.58295 15.3788 5.8053C15.3301 5.88197 15.1298 6.0778 14.7664 6.34854C14.6044 6.46924 14.4245 6.58008 14.2103 6.70811L14.136 6.75243C13.9485 6.86416 13.7339 6.99199 13.5271 7.13373C13.0391 7.46807 12.5309 7.91998 12.1891 8.65075C11.9419 9.17927 11.9589 9.69402 12.0682 10.1069C12.1039 10.2416 12.1235 10.3773 12.1238 10.4965C12.1239 10.5336 12.1094 10.5928 12.0266 10.6619C11.9376 10.7363 11.8122 10.7812 11.6995 10.78C10.6225 10.7678 9.77299 9.87575 9.6497 8.45271C9.556 7.3712 9.1141 6.36882 8.63729 5.57916Z"
        fill="#37C976" />
    <path
        d="M16.9017 15.0089C17.1662 15.0062 17.4143 14.9888 17.6469 14.9582C16.7693 16.0195 15.5846 16.8175 14.2291 17.2163C14.1826 16.8349 14.2131 16.3766 14.4379 15.9531C14.6298 15.5914 15.1157 15.3197 15.7716 15.1585C16.0729 15.0844 16.3594 15.0464 16.5722 15.0273C16.6777 15.0179 16.7625 15.0133 16.819 15.011C16.8472 15.0099 16.8681 15.0094 16.8808 15.0092L16.8929 15.009L16.9017 15.0089Z"
        fill="#37C976" />
    <path
        d="M5.25 10.5C5.25 8.78063 5.8699 7.20604 6.89838 5.98753C6.99956 6.13106 7.10097 6.28497 7.19913 6.44753C7.60056 7.11238 7.91238 7.86367 7.97597 8.59772C8.14674 10.5688 9.45746 12.4347 11.6805 12.4599C12.6423 12.4708 13.8069 11.7479 13.8038 10.4923C13.8031 10.2048 13.7579 9.92468 13.6923 9.67689C13.6607 9.55761 13.6652 9.46019 13.7109 9.36248C13.8814 8.99787 14.1331 8.75497 14.4766 8.51963C14.6366 8.41002 14.8029 8.31086 14.9952 8.19614L15.0722 8.15014C15.2875 8.02146 15.533 7.87244 15.7702 7.6957C16.115 7.43877 16.5607 7.07794 16.7968 6.70623C16.9838 6.412 17.157 6.0347 17.2912 5.64341C18.5041 6.90212 19.25 8.61395 19.25 10.5C19.25 11.0323 19.1906 11.5508 19.078 12.0491C19.0106 12.2487 18.9266 12.4352 18.7753 12.6315C18.5381 12.9393 18.0631 13.3167 16.8842 13.329L16.8782 13.329L16.8495 13.3295C16.8258 13.3299 16.7932 13.3307 16.7527 13.3323C16.6718 13.3355 16.5587 13.3418 16.4221 13.3541C16.1508 13.3784 15.7764 13.4273 15.3706 13.527C14.6124 13.7134 13.4998 14.1368 12.9539 15.1656C12.5231 15.9773 12.4746 16.8106 12.5716 17.4927C12.465 17.4976 12.3578 17.5 12.25 17.5C8.38401 17.5 5.25 14.366 5.25 10.5Z"
        fill="#37C976" />
    <path fill-rule="evenodd" clip-rule="evenodd"
        d="M18.2535 1.99982C18.5297 1.69118 19.0039 1.66491 19.3125 1.94116C21.5746 3.9658 23 6.91044 23 10.187C23 15.9384 18.6112 20.6647 13 21.1996V21.75H14.25C14.6642 21.75 15 22.0858 15 22.5C15 22.9142 14.6642 23.25 14.25 23.25H10.25C9.83579 23.25 9.50001 22.9142 9.50001 22.5C9.50001 22.0858 9.83579 21.75 10.25 21.75H11.5V21.2415C8.39923 21.121 5.62537 19.7236 3.69116 17.5625C3.41491 17.2539 3.44118 16.7797 3.74982 16.5035C4.05847 16.2272 4.53261 16.2535 4.80886 16.5622C6.56098 18.5198 9.10483 19.75 11.937 19.75C17.2185 19.75 21.5 15.4685 21.5 10.187C21.5 7.35483 20.2698 4.81098 18.3122 3.05886C18.0035 2.78261 17.9772 2.30847 18.2535 1.99982Z"
        fill="#37C976" />
</svg>
