<svg width="21" height="20" viewBox="0 0 21 20" fill="none" xmlns="http://www.w3.org/2000/svg">
    <mask id="mask0_73_172" style="mask-type:luminance" maskUnits="userSpaceOnUse" x="0" y="0" width="21" height="20">
        <path d="M20.5 0H0.5V20H20.5V0Z" fill="white" />
    </mask>
    <g mask="url(#mask0_73_172)">
        <path d="M20.1 10.2271C20.1 9.51804 20.0364 8.83624 19.9182 8.18164H10.5V12.0498H15.8818C15.65 13.2998 14.9455 14.3589 13.8864 15.068V17.5771H17.1182C19.0091 15.8362 20.1 13.2725 20.1 10.2271Z" fill="#4285F4" />
        <path d="M10.4999 20.0004C13.1999 20.0004 15.4635 19.1049 17.118 17.5777L13.8862 15.0686C12.9908 15.6686 11.8453 16.0231 10.4999 16.0231C7.89528 16.0231 5.69078 14.264 4.90438 11.9004H1.56348V14.4913C3.20898 17.7595 6.59078 20.0004 10.4999 20.0004Z" fill="#34A853" />
        <path d="M4.9045 11.8997C4.7045 11.2997 4.5909 10.6588 4.5909 9.99969C4.5909 9.34059 4.7045 8.69969 4.9045 8.09969V5.50879H1.5636C0.8864 6.85879 0.5 8.38609 0.5 9.99969C0.5 11.6133 0.8864 13.1406 1.5636 14.4906L4.9045 11.8997Z" fill="#FBBC04" />
        <path d="M10.4999 3.9773C11.968 3.9773 13.2862 4.4818 14.3226 5.4727L17.1908 2.6045C15.459 0.9909 13.1953 0 10.4999 0C6.59078 0 3.20898 2.2409 1.56348 5.5091L4.90438 8.1C5.69078 5.7364 7.89528 3.9773 10.4999 3.9773Z" fill="#E94235" />
    </g>
</svg>
