<svg width="20" height="20" viewBox="0 0 20 20" fill="none" xmlns="http://www.w3.org/2000/svg">
    <path fill-rule="evenodd" clip-rule="evenodd"
        d="M7.50033 1.04163C5.3142 1.04163 3.54199 2.81383 3.54199 4.99996C3.54199 7.18609 5.3142 8.95829 7.50033 8.95829C9.68645 8.95829 11.4587 7.18609 11.4587 4.99996C11.4587 2.81383 9.68645 1.04163 7.50033 1.04163ZM4.79199 4.99996C4.79199 3.50419 6.00455 2.29163 7.50033 2.29163C8.9961 2.29163 10.2087 3.50419 10.2087 4.99996C10.2087 6.49573 8.9961 7.70829 7.50033 7.70829C6.00455 7.70829 4.79199 6.49573 4.79199 4.99996Z"
        fill="#272D37" />
    <path
        d="M12.5003 1.87496C12.1551 1.87496 11.8753 2.15478 11.8753 2.49996C11.8753 2.84514 12.1551 3.12496 12.5003 3.12496C13.5359 3.12496 14.3753 3.96443 14.3753 4.99996C14.3753 6.03549 13.5359 6.87496 12.5003 6.87496C12.1551 6.87496 11.8753 7.15478 11.8753 7.49996C11.8753 7.84514 12.1551 8.12496 12.5003 8.12496C14.2262 8.12496 15.6253 6.72585 15.6253 4.99996C15.6253 3.27407 14.2262 1.87496 12.5003 1.87496Z"
        fill="#272D37" />
    <path fill-rule="evenodd" clip-rule="evenodd"
        d="M3.06545 11.267C4.23159 10.6006 5.80088 10.2083 7.50033 10.2083C9.19977 10.2083 10.7691 10.6006 11.9352 11.267C13.0837 11.9232 13.9587 12.9251 13.9587 14.1666C13.9587 15.4082 13.0837 16.41 11.9352 17.0663C10.7691 17.7327 9.19977 18.125 7.50033 18.125C5.80088 18.125 4.23159 17.7327 3.06545 17.0663C1.91699 16.41 1.04199 15.4082 1.04199 14.1666C1.04199 12.9251 1.91699 11.9232 3.06545 11.267ZM3.68562 12.3523C2.72283 12.9024 2.29199 13.5672 2.29199 14.1666C2.29199 14.766 2.72283 15.4308 3.68562 15.981C4.63073 16.5211 5.97811 16.875 7.50033 16.875C9.02254 16.875 10.3699 16.5211 11.315 15.981C12.2778 15.4308 12.7087 14.766 12.7087 14.1666C12.7087 13.5672 12.2778 12.9024 11.315 12.3523C10.3699 11.8122 9.02254 11.4583 7.50033 11.4583C5.97811 11.4583 4.63073 11.8122 3.68562 12.3523Z"
        fill="#272D37" />
    <path
        d="M15.1342 11.0561C14.797 10.9822 14.4638 11.1956 14.3898 11.5327C14.3159 11.8699 14.5293 12.2032 14.8664 12.2771C15.5268 12.4219 16.0545 12.6706 16.4027 12.9556C16.7515 13.241 16.8753 13.5197 16.8753 13.75C16.8753 13.9589 16.7748 14.2042 16.4977 14.4615C16.2187 14.7208 15.7899 14.9603 15.2368 15.1269C14.9063 15.2264 14.719 15.575 14.8185 15.9055C14.9181 16.236 15.2667 16.4233 15.5972 16.3238C16.2827 16.1174 16.8955 15.7981 17.3485 15.3774C17.8034 14.9547 18.1253 14.3988 18.1253 13.75C18.1253 13.0293 17.7301 12.4267 17.1943 11.9882C16.6581 11.5494 15.9358 11.2319 15.1342 11.0561Z"
        fill="#272D37" />
</svg>
