<svg width="20" height="20" viewBox="0 0 20 20" fill="none" xmlns="http://www.w3.org/2000/svg">
    <path fill-rule="evenodd" clip-rule="evenodd"
        d="M9.96784 1.04163H10.0325C11.0147 1.04162 11.7974 1.04161 12.4314 1.10356C13.0844 1.16737 13.6354 1.30083 14.1394 1.60188C14.4112 1.7643 14.6626 1.95875 14.8881 2.18107C15.3061 2.59316 15.5738 3.09302 15.7996 3.70903C16.0189 4.30711 16.2156 5.06464 16.4624 6.01536L16.5527 6.36333C16.8875 7.65264 17.1548 8.68246 17.254 9.50528C17.356 10.3509 17.297 11.0948 16.8629 11.7416C16.7848 11.8579 16.699 11.9689 16.606 12.0738C16.2323 12.495 15.7603 12.7392 15.2085 12.8852V14.1666C15.2085 14.5118 14.9287 14.7916 14.5835 14.7916C14.2383 14.7916 13.9585 14.5118 13.9585 14.1666V13.0727C13.2343 13.125 12.3596 13.125 11.3223 13.125H10.6252V17.7083H12.5002C12.8453 17.7083 13.1252 17.9881 13.1252 18.3333C13.1252 18.6785 12.8453 18.9583 12.5002 18.9583H7.50016C7.15498 18.9583 6.87516 18.6785 6.87516 18.3333C6.87516 17.9881 7.15498 17.7083 7.50016 17.7083H9.37516V13.125H8.678C7.34593 13.125 6.28195 13.125 5.4606 13.0142C4.61646 12.9004 3.91126 12.6565 3.39435 12.0738C3.30134 11.9689 3.21549 11.8579 3.13738 11.7416C2.70327 11.0948 2.64436 10.3509 2.7463 9.50528C2.84549 8.68245 3.11287 7.65262 3.44761 6.3633L3.53794 6.01539C3.78475 5.06465 3.98142 4.30712 4.20069 3.70903C4.42654 3.09302 4.6942 2.59316 5.11222 2.18107C5.33773 1.95875 5.58911 1.7643 5.86097 1.60188C6.36487 1.30083 6.91595 1.16737 7.56895 1.10356C8.20295 1.04161 8.98559 1.04162 9.96784 1.04163ZM11.2745 11.875C12.6654 11.875 13.6447 11.8736 14.3727 11.7754C15.0877 11.679 15.4418 11.5025 15.6709 11.2442C15.7267 11.1813 15.7782 11.1147 15.8251 11.0449C16.0175 10.7583 16.0993 10.3712 16.013 9.65488C15.9251 8.92559 15.6803 7.97734 15.3308 6.63116L15.2606 6.36077C15.0038 5.37168 14.8218 4.67339 14.626 4.13932C14.4344 3.61662 14.2476 3.30496 14.0106 3.07125C13.8563 2.91913 13.6843 2.78609 13.4983 2.67496C13.2125 2.50422 12.8639 2.40178 12.3098 2.34764C11.7437 2.29232 11.022 2.29163 10.0002 2.29163C8.97828 2.29163 8.25666 2.29232 7.69052 2.34764C7.13645 2.40178 6.78785 2.50422 6.50206 2.67496C6.31606 2.78609 6.14406 2.91913 5.98976 3.07125C5.75268 3.30496 5.56593 3.61662 5.3743 4.13931C5.17849 4.67339 4.99649 5.37168 4.73971 6.36077L4.66951 6.63116C4.32002 7.97734 4.07523 8.92559 3.98732 9.65488C3.90097 10.3712 3.98285 10.7583 4.17526 11.0449C4.22212 11.1147 4.27363 11.1813 4.32944 11.2442C4.55855 11.5025 4.91266 11.679 5.62765 11.7754C6.35563 11.8736 7.33496 11.875 8.72578 11.875H11.2745Z"
        fill="#272D37" />
</svg>
