<svg width="65" height="64" viewBox="0 0 65 64" fill="none" xmlns="http://www.w3.org/2000/svg">
    <g clip-path="url(#clip0_44_598)">
        <path d="M64.4118 34.3994H52.9804C42.995 34.3994 34.9004 42.4941 34.9004 52.4794V63.9108C50.6602 62.7421 63.2431 50.1593 64.4118 34.3994Z" fill="white" />
        <path d="M30.1003 63.9108V52.4794C30.1003 42.4941 22.0056 34.3994 12.0202 34.3994H0.588867C1.7574 50.1593 14.3404 62.7421 30.1003 63.9108Z" fill="white" />
        <path d="M64.4118 29.5993C63.2431 13.8394 50.6602 1.25643 34.9004 0.0878906V11.5192C34.9004 21.5046 42.995 29.5993 52.9804 29.5993H64.4118Z" fill="white" />
        <path d="M30.1003 0.0878906C14.3404 1.25643 1.7574 13.8394 0.588867 29.5993H12.0202C22.0056 29.5993 30.1003 21.5046 30.1003 11.5192V0.0878906Z" fill="white" />
        <path d="M22.2329 32.0001C26.6689 29.7836 30.2841 26.1684 32.5004 21.7324C34.7169 26.1684 38.332 29.7836 42.7681 32.0001C38.332 34.2164 34.7169 37.8316 32.5004 42.2676C30.2841 37.8316 26.6689 34.2164 22.2329 32.0001Z" fill="white" />
    </g>
    <defs>
        <clipPath id="clip0_44_598">
            <rect width="64" height="64" fill="white" transform="translate(0.5)" />
        </clipPath>
    </defs>
</svg>
