<svg width="25" height="25" viewBox="0 0 25 25" fill="none" xmlns="http://www.w3.org/2000/svg">
    <path fill-rule="evenodd" clip-rule="evenodd"
        d="M16.514 4.5C17.0711 4.50002 17.6171 4.65513 18.091 4.94797C18.5648 5.2408 18.9478 5.65979 19.197 6.158L20.583 8.929C20.827 8.829 21.067 8.721 21.303 8.605C21.5404 8.48645 21.8151 8.46705 22.0668 8.55106C22.3185 8.63508 22.5264 8.81563 22.645 9.053C22.7636 9.29037 22.783 9.56511 22.6989 9.81678C22.6149 10.0685 22.4344 10.2764 22.197 10.395C21.9566 10.502 21.7149 10.606 21.472 10.707L22.433 12.63C22.6416 13.047 22.7501 13.5068 22.75 13.973V16.5C22.75 16.9221 22.6609 17.3394 22.4886 17.7247C22.3163 18.11 22.0646 18.4546 21.75 18.736V20C21.75 20.3978 21.592 20.7794 21.3107 21.0607C21.0294 21.342 20.6478 21.5 20.25 21.5C19.8522 21.5 19.4706 21.342 19.1893 21.0607C18.908 20.7794 18.75 20.3978 18.75 20V19.5H6.75V20C6.75 20.3978 6.59196 20.7794 6.31066 21.0607C6.02936 21.342 5.64782 21.5 5.25 21.5C4.85218 21.5 4.47064 21.342 4.18934 21.0607C3.90804 20.7794 3.75 20.3978 3.75 20V18.736C3.136 18.186 2.75 17.388 2.75 16.5V13.972C2.75019 13.5065 2.85872 13.0473 3.067 12.631L4.02 10.723C3.77867 10.6217 3.54033 10.5127 3.305 10.396C3.06883 10.2759 2.88931 10.0678 2.80513 9.8166C2.72096 9.56538 2.73887 9.29114 2.855 9.053C2.91366 8.93543 2.99491 8.83057 3.09412 8.74442C3.19332 8.65826 3.30853 8.5925 3.43316 8.5509C3.55779 8.50929 3.6894 8.49266 3.82046 8.50194C3.95153 8.51122 4.07948 8.54624 4.197 8.605C4.43367 8.72167 4.67367 8.82967 4.917 8.929L6.303 6.159C6.55205 5.66061 6.93497 5.24141 7.40885 4.94839C7.88273 4.65538 8.42884 4.50011 8.986 4.5H16.514ZM8.25 13.5C7.85218 13.5 7.47064 13.658 7.18934 13.9393C6.90804 14.2206 6.75 14.6022 6.75 15C6.75 15.3978 6.90804 15.7794 7.18934 16.0607C7.47064 16.342 7.85218 16.5 8.25 16.5C8.64782 16.5 9.02936 16.342 9.31066 16.0607C9.59196 15.7794 9.75 15.3978 9.75 15C9.75 14.6022 9.59196 14.2206 9.31066 13.9393C9.02936 13.658 8.64782 13.5 8.25 13.5ZM17.25 13.5C16.8522 13.5 16.4706 13.658 16.1893 13.9393C15.908 14.2206 15.75 14.6022 15.75 15C15.75 15.3978 15.908 15.7794 16.1893 16.0607C16.4706 16.342 16.8522 16.5 17.25 16.5C17.6478 16.5 18.0294 16.342 18.3107 16.0607C18.592 15.7794 18.75 15.3978 18.75 15C18.75 14.6022 18.592 14.2206 18.3107 13.9393C18.0294 13.658 17.6478 13.5 17.25 13.5ZM16.514 6.5H8.986C8.82141 6.49998 8.65935 6.54058 8.51422 6.61821C8.36908 6.69583 8.24535 6.80808 8.154 6.945L8.092 7.053L6.822 9.591C8.37 10.055 10.456 10.5 12.75 10.5C14.892 10.5 16.851 10.112 18.36 9.683L18.677 9.591L17.408 7.053C17.3344 6.90581 17.2256 6.77907 17.0913 6.684C16.957 6.58893 16.8013 6.52847 16.638 6.508L16.515 6.5H16.514Z"
        fill="#4285F4" />
</svg>
