<svg width="16" height="16" viewBox="0 0 16 16" fill="none" xmlns="http://www.w3.org/2000/svg">
<g clip-path="url(#clip0_388_4874)">
<path d="M10.0007 8.5C10.2768 8.5 10.5007 8.27614 10.5007 8C10.5007 7.72386 10.2768 7.5 10.0007 7.5H6.00065C5.72451 7.5 5.50065 7.72386 5.50065 8C5.50065 8.27614 5.72451 8.5 6.00065 8.5H10.0007Z" fill="#272D37"/>
<path fill-rule="evenodd" clip-rule="evenodd" d="M8.00065 0.833332C4.04261 0.833332 0.833984 4.04196 0.833984 8C0.833984 11.958 4.04261 15.1667 8.00065 15.1667C11.9587 15.1667 15.1673 11.958 15.1673 8C15.1673 4.04196 11.9587 0.833332 8.00065 0.833332ZM1.83398 8C1.83398 4.59424 4.59489 1.83333 8.00065 1.83333C11.4064 1.83333 14.1673 4.59424 14.1673 8C14.1673 11.4058 11.4064 14.1667 8.00065 14.1667C4.59489 14.1667 1.83398 11.4058 1.83398 8Z" fill="#272D37"/>
</g>
<defs>
<clipPath id="clip0_388_4874">
<rect width="16" height="16" fill="white"/>
</clipPath>
</defs>
</svg>
