<svg width="292" height="242" viewBox="0 0 292 242" fill="none" xmlns="http://www.w3.org/2000/svg">
    <path
        d="M8.69044 213.937C6.71537 211.024 5.25616 207.594 4.44901 203.551C-8.65425 137.87 6.153 71.4731 62.6868 30.1545C87.0888 12.32 119.099 4.38743 148.869 1.47808C180.429 -1.60642 211.794 0.631749 239.245 18.2229C267.988 36.6417 284.529 68.6827 289.926 101.509C292.657 118.116 292.706 135.202 289.984 151.813C287.436 167.368 283.266 189.652 272.069 201.358C260.899 213.037 241.781 218.422 226.617 221.604C198.79 227.444 169.487 231.894 141.178 234.297C116.63 236.381 92.8825 233.326 68.4036 231.675C48.9915 230.367 20.1544 230.848 8.69044 213.937Z"
        fill="#E7F2FC" />
    <path
        d="M204.84 125.984C203.687 125.307 202.361 125.228 201.164 125.597C200.849 124.279 200.387 122.996 199.6 121.889C198.369 120.157 196.583 118.861 194.409 118.673C192.407 118.501 190.384 119.51 189.116 121.015C188.272 122.016 187.736 123.179 187.419 124.409C186.575 124.177 185.671 124.217 184.793 124.669C184.208 124.971 183.729 125.446 183.398 126.004C182.651 125.934 181.87 126.056 181.138 126.371C179.164 127.218 178.277 129.231 177.539 131.093C177.125 132.138 178.17 133.212 179.174 133.22C183.693 133.262 188.208 133.076 192.705 132.689C196.831 132.738 200.978 132.766 205.096 133.008C205.65 133.04 206.253 132.679 206.514 132.201C207.684 130.07 206.979 127.24 204.84 125.984Z"
        fill="white" />
    <path
        d="M66.4011 113.215C65.2986 112.567 64.0322 112.492 62.8879 112.844C62.5858 111.584 62.1448 110.358 61.3929 109.3C60.2163 107.645 58.5096 106.407 56.4313 106.227C54.5176 106.062 52.5844 107.027 51.372 108.465C50.5648 109.422 50.053 110.533 49.7496 111.708C48.9438 111.487 48.08 111.526 47.2398 111.958C46.6801 112.246 46.2236 112.701 45.9067 113.233C45.1926 113.167 44.4468 113.284 43.7468 113.584C41.8594 114.394 41.0125 116.319 40.3072 118.098C39.9113 119.097 40.91 120.123 41.8695 120.132C46.1892 120.171 50.5041 119.994 54.8035 119.624C58.7469 119.671 62.7112 119.698 66.6465 119.928C67.1765 119.959 67.7524 119.614 68.0026 119.157C69.1192 117.121 68.4456 114.416 66.4011 113.215Z"
        fill="white" />
    <path
        d="M107.67 32.5419C107.348 31.6688 106.752 30.9014 105.895 30.4067C105.222 30.0183 104.482 29.8572 103.747 29.8765C102.691 26.3822 99.0488 23.6928 95.3306 23.8366C91.5774 23.9816 88.2699 26.5942 86.8383 29.9708C85.7783 29.7061 84.6333 29.7435 83.6259 30.1125C82.572 30.4976 81.6825 31.1333 81.0453 32.0572C80.7614 32.469 80.5942 32.933 80.4378 33.3989C78.52 32.9316 76.3649 33.6436 74.8814 35.0568C73.872 36.0181 72.6521 37.5631 72.6164 39.0104C72.5955 39.8694 73.0662 40.7525 73.8194 41.1911C74.5348 41.6075 75.3568 41.5902 76.1552 41.5822C82.6306 41.5166 89.1074 41.169 95.5538 40.5647C95.8802 40.5339 96.2059 40.4965 96.5316 40.4631C101.254 40.31 105.971 40.062 110.694 39.949C111.77 39.9236 112.46 39.12 112.555 38.1039C112.814 35.3603 110.351 32.8421 107.67 32.5419Z"
        fill="white" />
    <path
        d="M231.294 56.7425C231.654 55.7664 232.32 54.9094 233.277 54.3566C234.029 53.9227 234.856 53.7429 235.678 53.7636C236.858 49.8588 240.929 46.8525 245.084 47.013C249.279 47.1754 252.976 50.0955 254.575 53.8685C255.76 53.5731 257.039 53.6145 258.166 54.027C259.343 54.4575 260.338 55.1675 261.05 56.2003C261.368 56.6602 261.555 57.179 261.729 57.6998C263.872 57.177 266.281 57.9732 267.939 59.5522C269.067 60.6265 270.431 62.3526 270.47 63.9704C270.494 64.931 269.967 65.9178 269.126 66.4078C268.327 66.8731 267.408 66.8537 266.515 66.845C259.278 66.7715 252.039 66.3837 244.834 65.7078C244.469 65.6738 244.106 65.6316 243.741 65.5949C238.464 65.4244 233.192 65.147 227.913 65.0206C226.71 64.9919 225.939 64.0941 225.833 62.9583C225.545 59.8925 228.298 57.0781 231.294 56.7425Z"
        fill="white" />
    <path
        d="M211.702 17.2455C212.053 21.1789 217.912 225.319 211.645 233.522C205.378 241.725 88.5329 246.806 87.0766 235.203C86.9687 234.343 85.6841 232.433 85.5117 229.595C83.6664 199.103 79.7898 63.6903 82.7085 22.6616C83.1848 15.966 84.2802 5.63038 95.9284 4.57218C101.046 4.10675 173.197 -1.49048 203.619 5.45225C210.409 7.00088 211.515 15.1564 211.702 17.2455Z"
        fill="#272D37" />
    <path
        d="M206.767 222.008C200.975 229.596 92.8899 234.295 91.5468 223.566C90.5562 215.668 85.8728 110.138 86.2336 52.6993C86.3005 42.2386 86.536 33.3773 86.9888 26.9864C87.4339 20.7888 88.4496 11.2324 99.2181 10.2523C103.952 9.82554 170.69 4.64067 198.835 11.0649C205.113 12.4968 206.137 20.0437 206.305 21.9781C206.381 22.8491 206.784 34.315 207.263 51.3591C208.798 105.565 211.182 216.237 206.767 222.008Z"
        fill="white" />
    <path
        d="M207.459 58.4665C192.099 60.0917 96.4118 57.6387 86.2139 57.6054C86.2807 47.1447 86.536 33.3775 86.9887 26.9874C87.4339 20.7898 88.4496 11.2334 99.218 10.2533C103.952 9.82652 170.69 4.64165 198.835 11.0659C205.113 12.4978 206.137 20.0447 206.305 21.9791C206.381 22.8501 206.981 41.4224 207.459 58.4665Z"
        fill="#37C976" />
    <path d="M172.328 7.0625C172.328 7.0625 172.523 12.5218 168.343 13.608C164.164 14.6943 124.812 15.312 122.465 13.5754C120.118 11.8396 119.315 7.53474 119.315 7.53474L171.368 7.09282L172.328 7.0625Z" fill="#272D37" />
    <path d="M99.819 74.5901C99.819 74.5901 99.3708 105.539 100.178 106.229C100.984 106.92 119.318 106.459 119.548 106.229C119.779 105.999 119.269 75.1677 118.972 74.393C118.683 73.6403 101.087 73.6699 99.819 74.5901Z" fill="#37C976" />
    <path d="M102.085 95.4162C102.085 95.4162 101.726 101.665 102.304 102.126C102.882 102.588 105.486 102.473 105.543 102.126C105.601 101.78 105.948 95.3723 105.543 95.3147C105.139 95.257 103.242 95.0122 102.085 95.4162Z" fill="#272D37" />
    <path d="M114.572 95.4162C114.572 95.4162 114.213 101.665 114.791 102.126C115.37 102.588 117.973 102.473 118.031 102.126C118.088 101.78 118.436 95.3723 118.031 95.3147C117.626 95.257 115.729 95.0122 114.572 95.4162Z" fill="#272D37" />
    <path d="M102.086 80.4607C102.086 80.4607 101.727 86.7091 102.305 87.1707C102.883 87.6324 105.487 87.5171 105.544 87.1707C105.602 86.8243 105.949 80.4168 105.544 80.3591C105.14 80.3008 103.242 80.0559 102.086 80.4607Z" fill="#272D37" />
    <path d="M113.673 80.4607C113.673 80.4607 113.314 86.7091 113.892 87.1707C114.471 87.6324 117.074 87.5171 117.132 87.1707C117.189 86.8243 117.537 80.4168 117.132 80.3591C116.728 80.3008 114.831 80.0559 113.673 80.4607Z" fill="#272D37" />
    <path d="M107.879 80.4607C107.879 80.4607 107.521 86.7091 108.099 87.1707C108.678 87.6324 111.281 87.5171 111.338 87.1707C111.396 86.8243 111.743 80.4168 111.338 80.3591C110.934 80.3008 109.036 80.0559 107.879 80.4607Z" fill="#272D37" />
    <path d="M99.8267 77.1242C106.247 77.1242 112.668 77.1242 119.088 77.1242C119.455 77.1242 119.455 76.5557 119.088 76.5557C112.668 76.5557 106.247 76.5557 99.8267 76.5557C99.4605 76.5557 99.4597 77.1242 99.8267 77.1242Z" fill="#272D37" />
    <path d="M99.8267 92.0871C106.247 92.0871 112.668 92.0871 119.088 92.0871C119.455 92.0871 119.455 91.5186 119.088 91.5186C112.668 91.5186 106.247 91.5186 99.8267 91.5186C99.4605 91.5186 99.4597 92.0871 99.8267 92.0871Z" fill="#272D37" />
    <path d="M107.25 106.595C107.25 106.595 106.701 96.2351 107.25 95.637C107.799 95.039 112.644 95.039 112.894 95.637C113.144 96.2351 113.193 106.516 113.193 106.516L107.25 106.595Z" fill="#272D37" />
    <path d="M95.3054 33.7889C94.4963 33.9094 93.881 34.5598 93.7944 35.3716C93.5726 37.4516 93.8529 43.3187 95.022 43.9032C97.5267 45.1554 168.336 45.3214 169.869 43.5378C171.609 41.5116 172.189 35.4171 170.422 33.9155C168.763 32.5071 105.601 32.2547 95.3054 33.7889Z" fill="white" />
    <path
        d="M166.346 37.994C166.334 38.8597 165.802 39.6678 164.975 39.9664C164.124 40.2727 163.16 40.0127 162.591 39.3077C162.045 38.6308 161.987 37.6567 162.432 36.9139C162.873 36.1763 163.757 35.7662 164.608 35.9224C165.613 36.1066 166.332 36.9813 166.346 37.994C166.354 38.6035 167.304 38.605 167.295 37.994C167.278 36.7145 166.489 35.5866 165.291 35.1318C164.11 34.6845 162.698 35.0635 161.898 36.0368C161.085 37.0261 160.947 38.4443 161.611 39.5525C162.274 40.6593 163.565 41.2118 164.826 40.986C166.257 40.729 167.276 39.4199 167.295 37.994C167.304 37.3838 166.354 37.3838 166.346 37.994Z"
        fill="#272D37" />
    <path
        d="M168.457 40.1829C168.171 40.0449 167.894 39.8888 167.628 39.7144C167.498 39.628 167.371 39.5371 167.246 39.4431C167.195 39.4052 167.258 39.4537 167.274 39.4651C167.258 39.4544 167.244 39.4415 167.229 39.4302C167.199 39.4067 167.17 39.3824 167.14 39.3589C167.074 39.3051 167.009 39.2498 166.946 39.1929C166.759 39.0292 166.455 38.9966 166.274 39.1929C166.109 39.3726 166.075 39.6879 166.274 39.863C166.788 40.3155 167.359 40.7037 167.977 41.0016C168.094 41.0577 168.214 41.0849 168.343 41.0493C168.453 41.019 168.573 40.9341 168.627 40.8318C168.74 40.6195 168.696 40.2981 168.457 40.1829Z"
        fill="#272D37" />
    <path d="M186.339 35.8137C189.256 35.8137 192.174 35.8137 195.092 35.8137C195.702 35.8137 195.704 34.8662 195.092 34.8662C192.174 34.8662 189.256 34.8662 186.339 34.8662C185.728 34.8662 185.727 35.8137 186.339 35.8137Z" fill="white" />
    <path d="M186.339 38.9026C189.256 38.9026 192.174 38.9026 195.092 38.9026C195.702 38.9026 195.704 37.9551 195.092 37.9551C192.174 37.9551 189.256 37.9551 186.339 37.9551C185.728 37.9551 185.727 38.9026 186.339 38.9026Z" fill="white" />
    <path d="M186.339 41.9944C189.256 41.9944 192.174 41.9944 195.092 41.9944C195.702 41.9944 195.704 41.0469 195.092 41.0469C192.174 41.0469 189.256 41.0469 186.339 41.0469C185.728 41.0469 185.727 41.9944 186.339 41.9944Z" fill="white" />
    <path d="M130.228 97.6694C130.228 97.6694 130.093 101.081 130.228 101.679C130.362 102.277 135.796 102.166 135.799 101.32C135.805 99.9761 135.912 98.2091 135.745 97.6694C135.542 97.0092 130.228 97.6694 130.228 97.6694Z" fill="#272D37" />
    <path d="M139.65 97.6694C139.65 97.6694 139.516 101.081 139.65 101.679C139.785 102.277 145.219 102.166 145.222 101.32C145.227 99.9761 145.335 98.2091 145.168 97.6694C144.964 97.0092 139.65 97.6694 139.65 97.6694Z" fill="#272D37" />
    <path d="M149.072 97.6694C149.072 97.6694 148.938 101.081 149.072 101.679C149.207 102.277 154.641 102.166 154.644 101.32C154.649 99.9761 154.757 98.2091 154.59 97.6694C154.386 97.0092 149.072 97.6694 149.072 97.6694Z" fill="#272D37" />
    <path d="M158.494 97.6694C158.494 97.6694 158.36 101.081 158.494 101.679C158.629 102.277 164.063 102.166 164.066 101.32C164.071 99.9761 164.179 98.2091 164.012 97.6694C163.808 97.0092 158.494 97.6694 158.494 97.6694Z" fill="#272D37" />
    <path
        d="M198.01 86.6611C196.313 79.4735 189.802 80.2854 189.802 80.2854C189.802 80.2854 183.244 80.4779 182.671 87.8406C182.098 95.2025 191.368 100.553 191.368 100.553C191.368 100.553 199.707 93.8487 198.01 86.6611ZM190.709 92.0218C188.444 92.1962 186.466 90.5043 186.291 88.2439C186.116 85.9834 187.812 84.0095 190.077 83.8352C192.343 83.6608 194.321 85.3528 194.495 87.6132C194.67 89.8744 192.975 91.8482 190.709 92.0218Z"
        fill="#37C976" />
    <path d="M130.219 84.9601C135.632 84.9601 141.044 84.9601 146.456 84.9601C146.823 84.9601 146.823 84.3916 146.456 84.3916C141.043 84.3916 135.631 84.3916 130.219 84.3916C129.852 84.3916 129.851 84.9601 130.219 84.9601Z" fill="#272D37" />
    <path d="M129.985 89.8576C145.639 89.8576 161.292 89.8576 176.946 89.8576C177.312 89.8576 177.313 89.2891 176.946 89.2891C161.292 89.2891 145.639 89.2891 129.985 89.2891C129.619 89.2891 129.618 89.8576 129.985 89.8576Z" fill="#272D37" />
    <path d="M129.984 93.7043C145.638 93.7043 161.292 93.7043 176.945 93.7043C177.312 93.7043 177.312 93.1357 176.945 93.1357C161.292 93.1357 145.638 93.1357 129.984 93.1357C129.618 93.1357 129.617 93.7043 129.984 93.7043Z" fill="#272D37" />
    <path
        d="M139.15 113.46C118.115 113.46 96.4471 112.975 94.8541 111.847C94.2729 111.434 93.9736 104.191 93.9645 90.3172C93.9584 80.3523 94.1575 68.8872 94.6102 67.2597C94.6398 67.1536 94.7295 66.8314 95.0455 66.8072C95.9944 66.7344 199.254 64.643 202.054 66.1795C202.381 66.3592 202.633 66.8163 202.868 67.6637C204.677 74.1342 205.162 106.358 202.944 110.185C202.791 110.449 202.424 110.764 200.858 111.104C193.432 112.718 166.497 113.375 143.766 113.453C142.237 113.457 140.693 113.46 139.15 113.46ZM95.3494 111.262C99.0597 113.206 183.487 113.416 199.888 110.52C201.995 110.148 202.263 109.837 202.286 109.803C203.226 108.181 203.788 98.7525 203.622 87.3859C203.435 74.6785 202.485 67.3173 201.686 66.8428C199.107 65.6876 103.062 67.0755 95.3122 67.5485C94.4872 70.7261 94.5046 108.972 95.3494 111.262ZM95.1055 67.5622C95.1055 67.5622 95.104 67.5629 95.1025 67.5629C95.104 67.5629 95.104 67.5629 95.1055 67.5622Z"
        fill="#37C976" />
    <path d="M99.819 129.358C99.819 129.358 99.3708 160.306 100.178 160.997C100.984 161.688 119.318 161.227 119.548 160.997C119.779 160.767 119.269 129.936 118.972 129.161C118.683 128.407 101.087 128.438 99.819 129.358Z" fill="#37C976" />
    <path d="M102.085 150.184C102.085 150.184 101.726 156.432 102.305 156.894C102.883 157.356 105.486 157.24 105.544 156.894C105.602 156.548 105.949 150.14 105.544 150.082C105.14 150.024 103.242 149.78 102.085 150.184Z" fill="#272D37" />
    <path d="M114.572 150.184C114.572 150.184 114.213 156.432 114.791 156.894C115.369 157.356 117.973 157.24 118.031 156.894C118.088 156.548 118.436 150.14 118.031 150.082C117.626 150.024 115.729 149.78 114.572 150.184Z" fill="#272D37" />
    <path d="M102.085 135.229C102.085 135.229 101.726 141.477 102.305 141.939C102.883 142.4 105.486 142.285 105.544 141.939C105.602 141.592 105.949 135.185 105.544 135.127C105.14 135.07 103.242 134.825 102.085 135.229Z" fill="#272D37" />
    <path d="M113.672 135.229C113.672 135.229 113.314 141.477 113.892 141.939C114.471 142.4 117.074 142.285 117.131 141.939C117.189 141.592 117.536 135.185 117.131 135.127C116.727 135.07 114.83 134.825 113.672 135.229Z" fill="#272D37" />
    <path d="M107.879 135.229C107.879 135.229 107.521 141.477 108.099 141.939C108.678 142.4 111.281 142.285 111.338 141.939C111.396 141.592 111.743 135.185 111.338 135.127C110.934 135.07 109.036 134.825 107.879 135.229Z" fill="#272D37" />
    <path d="M99.8267 131.89C106.247 131.89 112.668 131.89 119.088 131.89C119.455 131.89 119.455 131.321 119.088 131.321C112.668 131.321 106.247 131.321 99.8267 131.321C99.4605 131.321 99.4597 131.89 99.8267 131.89Z" fill="#272D37" />
    <path d="M99.8267 146.856C106.247 146.856 112.668 146.856 119.088 146.856C119.455 146.856 119.455 146.287 119.088 146.287C112.668 146.287 106.247 146.287 99.8267 146.287C99.4605 146.287 99.4597 146.856 99.8267 146.856Z" fill="#272D37" />
    <path d="M107.25 161.363C107.25 161.363 106.701 151.003 107.25 150.405C107.8 149.807 112.645 149.807 112.895 150.405C113.145 151.003 113.193 161.284 113.193 161.284L107.25 161.363Z" fill="#272D37" />
    <path d="M129.039 130.036C129.039 130.036 128.44 133.447 129.039 134.045C129.639 134.643 153.847 134.532 153.862 133.686C153.884 132.342 154.366 130.575 153.622 130.035C152.712 129.376 129.039 130.036 129.039 130.036Z" fill="#37C976" />
    <path d="M130.228 152.437C130.228 152.437 130.093 155.848 130.228 156.446C130.362 157.044 135.796 156.934 135.799 156.088C135.805 154.744 135.912 152.977 135.745 152.437C135.542 151.777 130.228 152.437 130.228 152.437Z" fill="#272D37" />
    <path d="M139.65 152.437C139.65 152.437 139.515 155.848 139.65 156.446C139.784 157.044 145.218 156.934 145.221 156.088C145.226 154.744 145.334 152.977 145.167 152.437C144.964 151.777 139.65 152.437 139.65 152.437Z" fill="#272D37" />
    <path d="M149.071 152.437C149.071 152.437 148.937 155.848 149.071 156.446C149.206 157.044 154.64 156.934 154.643 156.088C154.648 154.744 154.756 152.977 154.589 152.437C154.385 151.777 149.071 152.437 149.071 152.437Z" fill="#272D37" />
    <path d="M158.494 152.437C158.494 152.437 158.359 155.848 158.494 156.446C158.628 157.044 164.062 156.934 164.065 156.088C164.071 154.744 164.179 152.977 164.011 152.437C163.808 151.777 158.494 152.437 158.494 152.437Z" fill="#272D37" />
    <path
        d="M198.009 141.429C196.312 134.241 189.801 135.053 189.801 135.053C189.801 135.053 183.243 135.245 182.67 142.607C182.097 149.969 191.367 155.32 191.367 155.32C191.367 155.32 199.706 148.615 198.009 141.429ZM190.708 146.789C188.443 146.964 186.465 145.272 186.29 143.011C186.115 140.751 187.811 138.777 190.076 138.603C192.342 138.428 194.32 140.12 194.494 142.381C194.669 144.641 192.974 146.615 190.708 146.789Z"
        fill="#37C976" />
    <path d="M130.218 139.729C135.631 139.729 141.043 139.729 146.455 139.729C146.822 139.729 146.822 139.16 146.455 139.16C141.043 139.16 135.63 139.16 130.218 139.16C129.851 139.16 129.85 139.729 130.218 139.729Z" fill="#272D37" />
    <path d="M129.984 144.626C145.638 144.626 161.292 144.626 176.945 144.626C177.312 144.626 177.312 144.058 176.945 144.058C161.292 144.058 145.638 144.058 129.984 144.058C129.618 144.058 129.617 144.626 129.984 144.626Z" fill="#272D37" />
    <path d="M129.984 148.472C145.638 148.472 161.291 148.472 176.945 148.472C177.311 148.472 177.312 147.903 176.945 147.903C161.291 147.903 145.638 147.903 129.984 147.903C129.618 147.903 129.617 148.472 129.984 148.472Z" fill="#272D37" />
    <path
        d="M139.146 168.229C118.112 168.229 96.4459 167.744 94.8536 166.615C94.2724 166.203 93.9731 158.96 93.964 145.087C93.9579 135.123 94.157 123.658 94.6097 122.029C94.6394 121.923 94.729 121.6 95.0443 121.576C95.9931 121.504 199.253 119.411 202.053 120.948C202.381 121.128 202.631 121.585 202.868 122.431C204.676 128.902 205.162 161.125 202.944 164.953C202.791 165.216 202.423 165.532 200.858 165.872C193.431 167.487 166.496 168.144 143.765 168.221C142.235 168.227 140.69 168.229 139.146 168.229ZM95.3489 166.031C99.0577 167.975 183.484 168.185 199.887 165.289C201.994 164.917 202.262 164.606 202.286 164.571C203.226 162.949 203.788 153.521 203.621 142.155C203.434 129.448 202.485 122.087 201.686 121.612C199.103 120.456 103.061 121.844 95.3117 122.317C94.4867 125.495 94.5041 163.741 95.3489 166.031ZM95.1028 122.331C95.1035 122.331 95.1043 122.331 95.105 122.331C95.1043 122.331 95.1028 122.331 95.1028 122.331Z"
        fill="#272D37" />
    <path d="M99.8185 184.5C99.8185 184.5 99.3703 215.448 100.177 216.139C100.984 216.829 119.317 216.368 119.547 216.139C119.778 215.908 119.269 185.077 118.971 184.303C118.683 183.549 101.086 183.579 99.8185 184.5Z" fill="#37C976" />
    <path d="M102.085 205.324C102.085 205.324 101.726 211.572 102.305 212.034C102.883 212.496 105.486 212.381 105.544 212.034C105.602 211.688 105.949 205.28 105.544 205.223C105.14 205.165 103.242 204.921 102.085 205.324Z" fill="#272D37" />
    <path d="M114.572 205.324C114.572 205.324 114.213 211.572 114.791 212.034C115.37 212.496 117.973 212.381 118.031 212.034C118.088 211.688 118.436 205.28 118.031 205.223C117.626 205.165 115.729 204.921 114.572 205.324Z" fill="#272D37" />
    <path d="M102.085 190.367C102.085 190.367 101.726 196.616 102.304 197.077C102.882 197.539 105.486 197.424 105.543 197.077C105.601 196.731 105.948 190.323 105.543 190.266C105.139 190.208 103.242 189.963 102.085 190.367Z" fill="#272D37" />
    <path d="M113.672 190.367C113.672 190.367 113.314 196.616 113.892 197.077C114.471 197.539 117.074 197.424 117.131 197.077C117.189 196.731 117.536 190.323 117.131 190.266C116.727 190.208 114.83 189.963 113.672 190.367Z" fill="#272D37" />
    <path d="M107.879 190.367C107.879 190.367 107.52 196.616 108.099 197.077C108.677 197.539 111.28 197.424 111.338 197.077C111.396 196.731 111.743 190.323 111.338 190.266C110.934 190.208 109.036 189.963 107.879 190.367Z" fill="#272D37" />
    <path d="M99.8262 187.03C106.247 187.03 112.668 187.03 119.088 187.03C119.455 187.03 119.455 186.462 119.088 186.462C112.667 186.462 106.246 186.462 99.8262 186.462C99.46 186.462 99.4593 187.03 99.8262 187.03Z" fill="#272D37" />
    <path d="M99.8262 201.995C106.247 201.995 112.668 201.995 119.088 201.995C119.455 201.995 119.455 201.427 119.088 201.427C112.667 201.427 106.246 201.427 99.8262 201.427C99.46 201.427 99.4593 201.995 99.8262 201.995Z" fill="#272D37" />
    <path d="M107.25 216.503C107.25 216.503 106.701 206.143 107.25 205.545C107.799 204.947 112.644 204.947 112.894 205.545C113.144 206.143 113.193 216.424 113.193 216.424L107.25 216.503Z" fill="#272D37" />
    <path d="M129.039 185.176C129.039 185.176 128.439 188.587 129.039 189.185C129.638 189.783 153.847 189.672 153.861 188.826C153.883 187.482 154.366 185.715 153.621 185.175C152.711 184.515 129.039 185.176 129.039 185.176Z" fill="#37C976" />
    <path d="M130.228 207.577C130.228 207.577 130.093 210.988 130.228 211.586C130.362 212.184 135.796 212.073 135.799 211.227C135.805 209.883 135.912 208.116 135.745 207.576C135.542 206.917 130.228 207.577 130.228 207.577Z" fill="#272D37" />
    <path d="M139.65 207.577C139.65 207.577 139.515 210.988 139.65 211.586C139.784 212.184 145.218 212.073 145.221 211.227C145.226 209.883 145.334 208.116 145.167 207.576C144.964 206.917 139.65 207.577 139.65 207.577Z" fill="#272D37" />
    <path d="M149.071 207.577C149.071 207.577 148.937 210.988 149.071 211.586C149.206 212.184 154.64 212.073 154.643 211.227C154.648 209.883 154.756 208.116 154.589 207.576C154.385 206.917 149.071 207.577 149.071 207.577Z" fill="#272D37" />
    <path d="M158.493 207.577C158.493 207.577 158.359 210.988 158.493 211.586C158.628 212.184 164.062 212.073 164.065 211.227C164.07 209.883 164.178 208.116 164.011 207.576C163.807 206.917 158.493 207.577 158.493 207.577Z" fill="#272D37" />
    <path
        d="M198.009 196.569C196.312 189.382 189.801 190.194 189.801 190.194C189.801 190.194 183.243 190.386 182.67 197.748C182.097 205.11 191.367 210.461 191.367 210.461C191.367 210.461 199.706 203.756 198.009 196.569ZM190.708 201.93C188.443 202.104 186.465 200.412 186.29 198.152C186.115 195.892 187.811 193.918 190.076 193.743C192.342 193.569 194.32 195.261 194.494 197.521C194.669 199.782 192.974 201.756 190.708 201.93Z"
        fill="#37C976" />
    <path d="M130.218 194.868C135.631 194.868 141.043 194.868 146.455 194.868C146.822 194.868 146.822 194.3 146.455 194.3C141.043 194.3 135.63 194.3 130.218 194.3C129.851 194.3 129.85 194.868 130.218 194.868Z" fill="#272D37" />
    <path d="M129.984 199.765C145.638 199.765 161.292 199.765 176.945 199.765C177.312 199.765 177.312 199.196 176.945 199.196C161.292 199.196 145.638 199.196 129.984 199.196C129.618 199.196 129.617 199.765 129.984 199.765Z" fill="#272D37" />
    <path d="M129.984 203.611C145.638 203.611 161.291 203.611 176.945 203.611C177.311 203.611 177.312 203.043 176.945 203.043C161.291 203.043 145.638 203.043 129.984 203.043C129.618 203.043 129.617 203.611 129.984 203.611Z" fill="#272D37" />
    <path
        d="M139.146 223.368C118.112 223.368 96.4459 222.883 94.8536 221.754C94.2724 221.343 93.9731 214.099 93.964 200.226C93.9579 190.262 94.157 178.797 94.6097 177.168C94.6394 177.062 94.729 176.74 95.045 176.716C95.9939 176.643 199.247 174.549 202.053 176.087C202.381 176.267 202.632 176.725 202.868 177.572C204.676 184.042 205.161 216.265 202.944 220.093C202.791 220.356 202.423 220.672 200.858 221.012C193.431 222.627 166.496 223.284 143.765 223.361C142.235 223.366 140.69 223.368 139.146 223.368ZM95.3489 221.171C99.0577 223.115 183.484 223.325 199.887 220.429C201.994 220.057 202.262 219.746 202.286 219.711C203.226 218.089 203.788 208.661 203.621 197.294C203.434 184.587 202.485 177.226 201.686 176.751C199.102 175.598 103.06 176.984 95.3117 177.457C94.4867 180.635 94.5041 218.881 95.3489 221.171ZM95.1043 177.471H95.102V177.471L95.1043 177.471Z"
        fill="#272D37" />
    <path d="M130.06 75.57C130.06 75.57 129.461 78.9811 130.06 79.5792C130.66 80.1773 154.868 80.0666 154.883 79.2199C154.905 77.8759 155.387 76.109 154.643 75.5693C153.733 74.9098 130.06 75.57 130.06 75.57Z" fill="#37C976" />
    <path
        d="M161.499 74.3126L162.15 75.6285C162.191 75.7111 162.27 75.7687 162.362 75.7824L163.817 75.9931C164.048 76.0265 164.14 76.31 163.973 76.4722L162.92 77.4963C162.854 77.5607 162.824 77.654 162.839 77.7449L163.087 79.1912C163.127 79.4209 162.885 79.5952 162.679 79.4876L161.376 78.8046C161.294 78.7614 161.196 78.7614 161.114 78.8046L159.812 79.4876C159.606 79.596 159.365 79.4209 159.404 79.1912L159.652 77.7449C159.668 77.654 159.638 77.5607 159.571 77.4963L158.517 76.4722C158.35 76.31 158.442 76.0265 158.673 75.9931L160.128 75.7824C160.22 75.7687 160.299 75.7119 160.34 75.6285L160.991 74.3126C161.097 74.1041 161.395 74.1041 161.499 74.3126Z"
        fill="#37C976" />
    <path
        d="M168.761 74.3126L169.412 75.6285C169.453 75.7111 169.532 75.7687 169.624 75.7824L171.08 75.9931C171.31 76.0265 171.402 76.31 171.235 76.4722L170.182 77.4963C170.116 77.5607 170.085 77.654 170.1 77.7449L170.349 79.1912C170.388 79.4209 170.147 79.5952 169.94 79.4876L168.638 78.8046C168.556 78.7614 168.458 78.7614 168.376 78.8046L167.074 79.4876C166.867 79.596 166.626 79.4209 166.665 79.1912L166.913 77.7449C166.929 77.654 166.899 77.5607 166.832 77.4963L165.779 76.4722C165.612 76.31 165.704 76.0265 165.935 75.9931L167.391 75.7824C167.482 75.7687 167.561 75.7119 167.603 75.6285L168.254 74.3126C168.359 74.1041 168.658 74.1041 168.761 74.3126Z"
        fill="#37C976" />
    <path
        d="M175.757 74.3126L176.408 75.6285C176.449 75.7111 176.528 75.7687 176.62 75.7824L178.076 75.9931C178.307 76.0265 178.399 76.31 178.232 76.4722L177.179 77.4963C177.113 77.5607 177.082 77.654 177.097 77.7449L177.346 79.1912C177.385 79.4209 177.144 79.5952 176.937 79.4876L175.635 78.8046C175.553 78.7614 175.455 78.7614 175.373 78.8046L174.071 79.4876C173.864 79.596 173.623 79.4209 173.662 79.1912L173.911 77.7449C173.927 77.654 173.896 77.5607 173.829 77.4963L172.776 76.4722C172.609 76.31 172.701 76.0265 172.932 75.9931L174.388 75.7824C174.48 75.7687 174.559 75.7119 174.6 75.6285L175.251 74.3126C175.355 74.1041 175.654 74.1041 175.757 74.3126Z"
        fill="#37C976" />
    <path
        d="M159.398 128.649L160.049 129.964C160.09 130.047 160.169 130.105 160.261 130.118L161.716 130.329C161.947 130.362 162.039 130.645 161.872 130.808L160.819 131.832C160.753 131.897 160.723 131.99 160.738 132.081L160.986 133.527C161.026 133.757 160.784 133.931 160.578 133.824L159.276 133.141C159.194 133.097 159.096 133.097 159.014 133.141L157.711 133.824C157.505 133.932 157.264 133.757 157.303 133.527L157.551 132.081C157.567 131.99 157.537 131.897 157.47 131.832L156.417 130.808C156.25 130.646 156.342 130.362 156.573 130.329L158.028 130.118C158.12 130.105 158.199 130.048 158.24 129.964L158.891 128.649C158.997 128.44 159.295 128.44 159.398 128.649Z"
        fill="#37C976" />
    <path
        d="M166.395 128.649L167.046 129.964C167.087 130.047 167.166 130.105 167.258 130.118L168.714 130.329C168.945 130.362 169.036 130.645 168.869 130.808L167.816 131.832C167.75 131.897 167.72 131.99 167.735 132.081L167.984 133.527C168.023 133.757 167.781 133.931 167.575 133.824L166.273 133.141C166.191 133.097 166.093 133.097 166.011 133.141L164.709 133.824C164.502 133.932 164.261 133.757 164.3 133.527L164.548 132.081C164.564 131.99 164.534 131.897 164.467 131.832L163.414 130.808C163.247 130.646 163.339 130.362 163.57 130.329L165.025 130.118C165.117 130.105 165.196 130.048 165.237 129.964L165.888 128.649C165.994 128.44 166.292 128.44 166.395 128.649Z"
        fill="#37C976" />
    <path
        d="M159.414 184.22L160.065 185.536C160.106 185.618 160.185 185.676 160.277 185.69L161.732 185.9C161.963 185.934 162.055 186.217 161.888 186.379L160.835 187.404C160.769 187.468 160.739 187.561 160.754 187.652L161.002 189.098C161.042 189.328 160.8 189.502 160.594 189.394L159.292 188.711C159.21 188.668 159.112 188.668 159.029 188.711L157.727 189.394C157.521 189.502 157.28 189.327 157.319 189.098L157.568 187.652C157.584 187.561 157.553 187.468 157.487 187.404L156.433 186.379C156.266 186.217 156.358 185.934 156.589 185.9L158.044 185.69C158.136 185.676 158.215 185.619 158.256 185.536L158.907 184.22C159.013 184.011 159.311 184.011 159.414 184.22Z"
        fill="#37C976" />
</svg>
