<svg width="20" height="20" viewBox="0 0 20 20" fill="none" xmlns="http://www.w3.org/2000/svg">
    <path
        d="M2.14244 13.5714C2.93101 13.5714 3.57101 12.6114 3.57101 11.4285C3.57101 10.2457 2.93101 9.28569 2.14244 9.28569C1.35387 9.28569 0.713867 10.2457 0.713867 11.4285C0.713867 12.6114 1.35387 13.5714 2.14244 13.5714ZM6.42815 7.14283C7.21673 7.14283 7.85673 6.18283 7.85673 4.99997C7.85673 3.81712 7.21673 2.85712 6.42815 2.85712C5.63958 2.85712 4.99958 3.81712 4.99958 4.99997C4.99958 6.18283 5.63958 7.14283 6.42815 7.14283ZM13.571 7.14283C14.3596 7.14283 14.9996 6.18283 14.9996 4.99997C14.9996 3.81712 14.3596 2.85712 13.571 2.85712C12.7824 2.85712 12.1424 3.81712 12.1424 4.99997C12.1424 6.18283 12.7824 7.14283 13.571 7.14283ZM17.8567 13.5714C18.6453 13.5714 19.2853 12.6114 19.2853 11.4285C19.2853 10.2457 18.6453 9.28569 17.8567 9.28569C17.0682 9.28569 16.4282 10.2457 16.4282 11.4285C16.4282 12.6114 17.0682 13.5714 17.8567 13.5714ZM14.2853 14.2857C14.2853 16.2571 11.971 17.1428 9.99958 17.1428C8.02815 17.1428 5.71387 16.2571 5.71387 14.2857C5.71387 12.3143 7.14244 9.28569 9.99958 9.28569C12.8567 9.28569 14.2853 12.3143 14.2853 14.2857Z"
        stroke="#272D37" stroke-width="1.2" stroke-linecap="round" stroke-linejoin="round" />
</svg>
