<svg width="16" height="17" viewBox="0 0 16 17" fill="none" xmlns="http://www.w3.org/2000/svg">
    <path
        d="M10.0396 7.49959C10.2236 7.29361 10.2057 6.97753 9.99967 6.79362C9.79369 6.6097 9.47761 6.62759 9.2937 6.83358L7.28571 9.08252L6.7063 8.43358C6.52239 8.22759 6.20631 8.2097 6.00033 8.39362C5.79434 8.57753 5.77645 8.89361 5.96036 9.09959L6.91275 10.1663C7.00761 10.2725 7.14328 10.3333 7.28571 10.3333C7.42815 10.3333 7.56382 10.2725 7.65868 10.1663L10.0396 7.49959Z"
        fill="#272D37" />
    <path fill-rule="evenodd" clip-rule="evenodd"
        d="M8 1.33325C7.37498 1.33325 6.77821 1.53764 5.81559 1.86733L5.33063 2.03334C4.34308 2.37138 3.58094 2.63227 3.03535 2.85391C2.76052 2.96556 2.52424 3.0737 2.33399 3.18419C2.1509 3.29052 1.96721 3.42315 1.84242 3.60095C1.71907 3.77669 1.65529 3.99275 1.61521 4.20073C1.57354 4.41696 1.54842 4.67634 1.5322 4.97416C1.5 5.56549 1.5 6.37559 1.5 7.42634V8.49416C1.5 12.5615 4.57202 14.5116 6.39889 15.3096L6.41695 15.3175C6.64348 15.4165 6.85641 15.5095 7.10107 15.5722C7.35938 15.6383 7.63383 15.6666 8 15.6666C8.36617 15.6666 8.64062 15.6383 8.89893 15.5722C9.14358 15.5095 9.3565 15.4165 9.58303 15.3175L9.60111 15.3096C11.428 14.5116 14.5 12.5615 14.5 8.49416V7.42646C14.5 6.37566 14.5 5.56552 14.4678 4.97416C14.4516 4.67634 14.4265 4.41696 14.3848 4.20073C14.3447 3.99275 14.2809 3.77669 14.1576 3.60095C14.0328 3.42315 13.8491 3.29052 13.666 3.18419C13.4758 3.0737 13.2395 2.96556 12.9646 2.85391C12.4191 2.63227 11.6569 2.37138 10.6694 2.03334L10.1844 1.86733C9.22179 1.53764 8.62502 1.33325 8 1.33325ZM6.05374 2.84278C7.1301 2.47434 7.56151 2.33325 8 2.33325C8.43849 2.33325 8.8699 2.47434 9.94626 2.84278L10.3281 2.9735C11.3365 3.31868 12.0719 3.57062 12.5883 3.78038C12.846 3.88508 13.0327 3.97282 13.1638 4.04894C13.2285 4.08652 13.2731 4.11753 13.3029 4.14174C13.3281 4.16224 13.3377 4.17386 13.3391 4.17557C13.3404 4.17765 13.3487 4.1915 13.3604 4.22428C13.3737 4.26168 13.3885 4.31531 13.4029 4.38996C13.432 4.54105 13.454 4.74859 13.4693 5.02853C13.4998 5.58933 13.5 6.37214 13.5 7.44436V8.49416C13.5 11.9442 10.9201 13.6422 9.20081 14.3932C8.95316 14.5014 8.81014 14.5627 8.65093 14.6034C8.49888 14.6423 8.31333 14.6666 8 14.6666C7.68667 14.6666 7.50112 14.6423 7.34907 14.6034C7.18986 14.5627 7.04684 14.5014 6.79919 14.3932C5.07993 13.6422 2.5 11.9442 2.5 8.49416V7.44436C2.5 6.37214 2.50018 5.58933 2.53072 5.02853C2.54596 4.74859 2.56803 4.54105 2.59714 4.38996C2.61153 4.31531 2.6263 4.26168 2.63962 4.22428C2.65129 4.19152 2.65957 4.17767 2.66086 4.17558C2.66224 4.17388 2.67186 4.16226 2.69711 4.14174C2.72689 4.11753 2.77148 4.08652 2.83619 4.04894C2.96727 3.97282 3.154 3.88508 3.41173 3.78038C3.92806 3.57062 4.66347 3.31868 5.67187 2.9735L6.05374 2.84278Z"
        fill="#272D37" />
</svg>
