<svg width="25" height="24" viewBox="0 0 25 24" fill="none" xmlns="http://www.w3.org/2000/svg">
<path d="M12.5 1.25C12.9142 1.25 13.25 1.58579 13.25 2V2.25143C13.3612 2.25311 13.4561 2.25675 13.5446 2.26458C15.3548 2.42465 16.7896 3.85953 16.9497 5.66968C16.9643 5.83512 16.9643 6.02256 16.9643 6.29785L16.9643 7.521C16.9643 11.3903 14.0202 14.5719 10.25 14.9481V17.0001C10.25 19.3473 12.1528 21.2501 14.5 21.2501H15.3824C16.7803 21.2501 17.9809 20.3981 18.4902 19.1822C18.53 19.0872 18.5578 18.9789 18.575 18.8547C17.3708 18.4647 16.5 17.3341 16.5 16C16.5 14.3431 17.8432 13 19.5 13C21.1569 13 22.5 14.3431 22.5 16C22.5 17.4603 21.4567 18.6768 20.0748 18.945C20.0472 19.2085 19.9887 19.4872 19.8738 19.7617C19.1391 21.5156 17.4058 22.7501 15.3824 22.7501H14.5C11.3244 22.7501 8.75001 20.1757 8.75001 17.0001V14.9495C4.8217 14.5722 1.75001 11.2625 1.75001 7.23529L1.75 6.29791C1.74997 6.02259 1.74995 5.83514 1.76458 5.66968C1.92465 3.85953 3.35954 2.42465 5.16969 2.26458C5.32536 2.25081 5.50051 2.25002 5.75001 2.24999V2C5.75001 1.58579 6.08579 1.25 6.50001 1.25C6.91422 1.25 7.25001 1.58579 7.25001 2V4C7.25001 4.41421 6.91422 4.75 6.50001 4.75C6.08579 4.75 5.75001 4.41421 5.75001 4V3.75002C5.4866 3.7502 5.38393 3.75148 5.30181 3.75875C4.21573 3.85479 3.35479 4.71572 3.25875 5.80181C3.25074 5.8924 3.25001 6.00802 3.25001 6.3369V7.23529C3.25001 10.6871 6.04823 13.4853 9.50001 13.4853C12.794 13.4853 15.4643 10.815 15.4643 7.521V6.3369C15.4643 6.00802 15.4636 5.8924 15.4555 5.80181C15.3595 4.71572 14.4986 3.85479 13.4125 3.75875C13.3702 3.755 13.3224 3.75285 13.25 3.75162V4C13.25 4.41421 12.9142 4.75 12.5 4.75C12.0858 4.75 11.75 4.41421 11.75 4V2C11.75 1.58579 12.0858 1.25 12.5 1.25Z" fill="#FF3232"/>
</svg>
