<svg width="25" height="25" viewBox="0 0 25 25" fill="none" xmlns="http://www.w3.org/2000/svg">
    <path fill-rule="evenodd" clip-rule="evenodd"
        d="M4.82004 18.3657C5.50688 17.2919 6.97749 17.3271 7.7077 18.2618C8.6977 19.5291 10.0797 20.75 12.2502 20.75C14.4588 20.75 15.8199 19.7712 16.7551 18.5209C17.4751 17.5585 19.0409 17.4013 19.7958 18.5435C20.4208 19.4891 21.0988 20.2306 22.4222 20.5424C22.8254 20.6374 23.0752 21.0412 22.9802 21.4444C22.8852 21.8476 22.4813 22.0974 22.0782 22.0024C20.2262 21.566 19.2706 20.4692 18.5444 19.3705C18.4874 19.2844 18.4019 19.2406 18.2908 19.2427C18.1723 19.2449 18.0436 19.3027 17.9563 19.4195C16.7886 20.9804 15.0104 22.25 12.2502 22.25C9.40759 22.25 7.63876 20.6101 6.52565 19.1853C6.45392 19.0934 6.36032 19.0585 6.27981 19.0602C6.20388 19.0619 6.13442 19.0946 6.08365 19.174C5.34416 20.3301 4.38929 21.5389 2.42218 22.0024C2.01901 22.0974 1.61516 21.8476 1.52016 21.4444C1.42516 21.0412 1.67498 20.6374 2.07816 20.5424C3.4791 20.2123 4.15775 19.4011 4.82004 18.3657Z"
        fill="#5992FB" />
    <path
        d="M22.4222 15.5424C21.0988 15.2306 20.4208 14.4891 19.7958 13.5435C19.0953 12.4837 17.6969 12.5426 16.9236 13.3253L15.7502 12L9.25091 4.63417C8.70861 4.01957 7.76021 3.98996 7.18063 4.56954C6.65559 5.09458 6.6233 5.93532 7.10652 6.49908L8.09424 7.65142C8.69867 8.35659 7.7271 9.91384 7.7271 9.91384L5.24853 12.8997C5.08687 13.0213 4.94125 13.1762 4.82004 13.3657C4.15775 14.4011 3.4791 15.2123 2.07816 15.5424C1.67498 15.6374 1.42516 16.0412 1.52016 16.4444C1.61516 16.8476 2.01901 17.0974 2.42218 17.0024C4.38929 16.5389 5.34416 15.3301 6.08365 14.174C6.13442 14.0946 6.20388 14.0619 6.27981 14.0602C6.36032 14.0585 6.45392 14.0934 6.52565 14.1853C7.63876 15.6101 9.40759 17.25 12.2502 17.25C15.0104 17.25 16.7886 15.9804 17.9563 14.4195C18.0436 14.3027 18.1723 14.2449 18.2908 14.2427C18.4019 14.2406 18.4874 14.2844 18.5444 14.3705C19.2706 15.4692 20.2262 16.566 22.0782 17.0024C22.4813 17.0974 22.8852 16.8476 22.9802 16.4444C23.0752 16.0412 22.8254 15.6374 22.4222 15.5424Z"
        fill="#5992FB" />
    <path d="M17.2502 8.5C18.6309 8.5 19.7502 7.38071 19.7502 6C19.7502 4.61929 18.6309 3.5 17.2502 3.5C15.8695 3.5 14.7502 4.61929 14.7502 6C14.7502 7.38071 15.8695 8.5 17.2502 8.5Z" fill="#5992FB" />
</svg>
