<svg width="21" height="20" viewBox="0 0 21 20" fill="none" xmlns="http://www.w3.org/2000/svg">
<path d="M10.5 3C9.58075 3 8.6705 3.18106 7.82122 3.53284C6.97194 3.88463 6.20026 4.40024 5.55025 5.05025C4.90024 5.70026 4.38463 6.47194 4.03284 7.32122C3.68106 8.1705 3.5 9.08075 3.5 10C3.5 10.9193 3.68106 11.8295 4.03284 12.6788C4.38463 13.5281 4.90024 14.2997 5.55025 14.9497C6.20026 15.5998 6.97194 16.1154 7.82122 16.4672C8.6705 16.8189 9.58075 17 10.5 17C12.3565 17 14.137 16.2625 15.4497 14.9497C16.7625 13.637 17.5 11.8565 17.5 10C17.5 8.14348 16.7625 6.36301 15.4497 5.05025C14.137 3.7375 12.3565 3 10.5 3ZM2.5 10C2.5 7.87827 3.34285 5.84344 4.84315 4.34315C6.34344 2.84285 8.37827 2 10.5 2C12.6217 2 14.6566 2.84285 16.1569 4.34315C17.6571 5.84344 18.5 7.87827 18.5 10C18.5 12.1217 17.6571 14.1566 16.1569 15.6569C14.6566 17.1571 12.6217 18 10.5 18C8.37827 18 6.34344 17.1571 4.84315 15.6569C3.34285 14.1566 2.5 12.1217 2.5 10Z" fill="#E7ECF2"/>
</svg>
