<svg width="24" height="18" viewBox="0 0 24 18" fill="none" xmlns="http://www.w3.org/2000/svg">
<g clip-path="url(#clip0_183_3276)">
<rect width="24" height="18" fill="white"/>
<path fill-rule="evenodd" clip-rule="evenodd" d="M0 0H24V18H0V0Z" fill="#F7FCFF"/>
<path fill-rule="evenodd" clip-rule="evenodd" d="M0 11V12.5H24V11H0Z" fill="#E31D1C"/>
<path fill-rule="evenodd" clip-rule="evenodd" d="M0 13.75V15.25H24V13.75H0Z" fill="#E31D1C"/>
<path fill-rule="evenodd" clip-rule="evenodd" d="M0 5.5V7H24V5.5H0Z" fill="#E31D1C"/>
<path fill-rule="evenodd" clip-rule="evenodd" d="M0 16.5V18H24V16.5H0Z" fill="#E31D1C"/>
<path fill-rule="evenodd" clip-rule="evenodd" d="M0 8.25V9.75H24V8.25H0Z" fill="#E31D1C"/>
<path fill-rule="evenodd" clip-rule="evenodd" d="M0 0V1.5H24V0H0Z" fill="#E31D1C"/>
<path fill-rule="evenodd" clip-rule="evenodd" d="M0 2.75V4.25H24V2.75H0Z" fill="#E31D1C"/>
<rect width="15" height="9.75" fill="#2E42A5"/>
<path fill-rule="evenodd" clip-rule="evenodd" d="M4.29148 2.20415L3.74707 2.58582L3.93086 1.90661L3.44733 1.47618H4.07889L4.29071 0.921875L4.53909 1.47618H5.07748L4.65446 1.90661L4.81823 2.58582L4.29148 2.20415ZM1.29141 2.20427L0.747004 2.58594L0.930803 1.90673L0.447266 1.4763H1.07883L1.29065 0.921997L1.53903 1.4763H2.07742L1.6544 1.90673L1.81817 2.58594L1.29141 2.20427ZM6.74707 2.58582L7.29147 2.20415L7.81823 2.58582L7.65446 1.90661L8.07748 1.47618H7.53909L7.29071 0.921875L7.07889 1.47618H6.44733L6.93086 1.90661L6.74707 2.58582ZM10.2915 2.20415L9.74707 2.58582L9.93086 1.90661L9.44733 1.47618H10.0789L10.2907 0.921875L10.5391 1.47618H11.0775L10.6545 1.90661L10.8182 2.58582L10.2915 2.20415ZM0.747065 5.58582L1.29147 5.20415L1.81823 5.58582L1.65446 4.90661L2.07748 4.47618H1.53909L1.29071 3.92188L1.07889 4.47618H0.447327L0.930864 4.90661L0.747065 5.58582ZM4.29148 5.20415L3.74707 5.58582L3.93086 4.90661L3.44733 4.47618H4.07889L4.29071 3.92188L4.53909 4.47618H5.07748L4.65446 4.90661L4.81823 5.58582L4.29148 5.20415ZM6.74707 5.58582L7.29147 5.20415L7.81823 5.58582L7.65446 4.90661L8.07748 4.47618H7.53909L7.29071 3.92188L7.07889 4.47618H6.44733L6.93086 4.90661L6.74707 5.58582ZM10.2915 5.20415L9.74707 5.58582L9.93086 4.90661L9.44733 4.47618H10.0789L10.2907 3.92188L10.5391 4.47618H11.0775L10.6545 4.90661L10.8182 5.58582L10.2915 5.20415ZM0.747065 8.58582L1.29147 8.20415L1.81823 8.58582L1.65446 7.90661L2.07748 7.47618H1.53909L1.29071 6.92188L1.07889 7.47618H0.447327L0.930864 7.90661L0.747065 8.58582ZM4.29148 8.20415L3.74707 8.58582L3.93086 7.90661L3.44733 7.47618H4.07889L4.29071 6.92188L4.53909 7.47618H5.07748L4.65446 7.90661L4.81823 8.58582L4.29148 8.20415ZM6.74707 8.58582L7.29147 8.20415L7.81823 8.58582L7.65446 7.90661L8.07748 7.47618H7.53909L7.29071 6.92188L7.07889 7.47618H6.44733L6.93086 7.90661L6.74707 8.58582ZM10.2915 8.20415L9.74707 8.58582L9.93086 7.90661L9.44733 7.47618H10.0789L10.2907 6.92188L10.5391 7.47618H11.0775L10.6545 7.90661L10.8182 8.58582L10.2915 8.20415ZM12.7471 2.58582L13.2915 2.20415L13.8182 2.58582L13.6545 1.90661L14.0775 1.47618H13.5391L13.2907 0.921875L13.0789 1.47618H12.4473L12.9309 1.90661L12.7471 2.58582ZM13.2915 5.20415L12.7471 5.58582L12.9309 4.90661L12.4473 4.47618H13.0789L13.2907 3.92188L13.5391 4.47618H14.0775L13.6545 4.90661L13.8182 5.58582L13.2915 5.20415ZM12.7471 8.58582L13.2915 8.20415L13.8182 8.58582L13.6545 7.90661L14.0775 7.47618H13.5391L13.2907 6.92188L13.0789 7.47618H12.4473L12.9309 7.90661L12.7471 8.58582ZM2.79148 3.70415L2.24707 4.08582L2.43086 3.40661L1.94733 2.97618H2.57889L2.79071 2.42188L3.03909 2.97618H3.57748L3.15446 3.40661L3.31823 4.08582L2.79148 3.70415ZM5.24707 4.08582L5.79147 3.70415L6.31823 4.08582L6.15446 3.40661L6.57748 2.97618H6.03909L5.79071 2.42188L5.57889 2.97618H4.94733L5.43086 3.40661L5.24707 4.08582ZM8.79148 3.70415L8.24707 4.08582L8.43086 3.40661L7.94733 2.97618H8.57889L8.79071 2.42188L9.03909 2.97618H9.57748L9.15446 3.40661L9.31823 4.08582L8.79148 3.70415ZM2.24707 7.08582L2.79148 6.70415L3.31823 7.08582L3.15446 6.40661L3.57748 5.97618H3.03909L2.79071 5.42188L2.57889 5.97618H1.94733L2.43086 6.40661L2.24707 7.08582ZM5.79147 6.70415L5.24707 7.08582L5.43086 6.40661L4.94733 5.97618H5.57889L5.79071 5.42188L6.03909 5.97618H6.57748L6.15446 6.40661L6.31823 7.08582L5.79147 6.70415ZM8.24707 7.08582L8.79148 6.70415L9.31823 7.08582L9.15446 6.40661L9.57748 5.97618H9.03909L8.79071 5.42188L8.57889 5.97618H7.94733L8.43086 6.40661L8.24707 7.08582ZM11.7915 3.70415L11.2471 4.08582L11.4309 3.40661L10.9473 2.97618H11.5789L11.7907 2.42188L12.0391 2.97618H12.5775L12.1545 3.40661L12.3182 4.08582L11.7915 3.70415ZM11.2471 7.08582L11.7915 6.70415L12.3182 7.08582L12.1545 6.40661L12.5775 5.97618H12.0391L11.7907 5.42188L11.5789 5.97618H10.9473L11.4309 6.40661L11.2471 7.08582Z" fill="#F7FCFF"/>
</g>
<defs>
<clipPath id="clip0_183_3276">
<rect width="24" height="18" fill="white"/>
</clipPath>
</defs>
</svg>
