<svg width="24" height="18" viewBox="0 0 24 18" fill="none" xmlns="http://www.w3.org/2000/svg">
<g clip-path="url(#clip0_183_3279)">
<rect width="24" height="18" fill="white"/>
<path fill-rule="evenodd" clip-rule="evenodd" d="M0 12H24V18H0V12Z" fill="#14DC5A"/>
<path fill-rule="evenodd" clip-rule="evenodd" d="M0 0H24V7.5H0V0Z" fill="#0099B5"/>
<path d="M-1.5 7.125H-1.875V7.5V12V12.375H-1.5H25.5H25.875V12V7.5V7.125H25.5H-1.5Z" fill="#F7FCFF" stroke="#C51918" stroke-width="0.75"/>
<path fill-rule="evenodd" clip-rule="evenodd" d="M10.906 2.25472L10.4012 2.53519L10.5454 1.96516L10.0618 1.54627H10.6934L10.9052 1.00684L11.1536 1.54627H11.692L11.269 1.96516L11.4724 2.53519L10.906 2.25472ZM8.1999 3.97294L8.70468 3.69246L9.27107 3.97294L9.06767 3.4029L9.49069 2.98401H8.9523L8.70392 2.44458L8.4921 2.98401H7.86053L8.34407 3.4029L8.1999 3.97294ZM6.32083 5.22066L5.81605 5.50114L5.96022 4.9311L5.47668 4.51221H6.10825L6.32007 3.97278L6.56845 4.51221H7.10684L6.68382 4.9311L6.88722 5.50114L6.32083 5.22066ZM8.70468 5.22066L8.1999 5.50114L8.34407 4.9311L7.86053 4.51221H8.4921L8.70392 3.97278L8.9523 4.51221H9.49069L9.06767 4.9311L9.27107 5.50114L8.70468 5.22066ZM10.9397 5.22066L10.4349 5.50114L10.5791 4.9311L10.0955 4.51221H10.7271L10.9389 3.97278L11.1873 4.51221H11.7257L11.3027 4.9311L11.5061 5.50114L10.9397 5.22066ZM10.4349 3.97294L10.9397 3.69246L11.5061 3.97294L11.3027 3.4029L11.7257 2.98401H11.1873L10.9389 2.44458L10.7271 2.98401H10.0955L10.5791 3.4029L10.4349 3.97294ZM12.6843 5.50114L13.1891 5.22066L13.7555 5.50114L13.5521 4.9311L13.9751 4.51221H13.4367L13.1884 3.97278L12.9765 4.51221H12.345L12.8285 4.9311L12.6843 5.50114ZM13.1891 3.69246L12.6843 3.97294L12.8285 3.4029L12.345 2.98401H12.9765L13.1884 2.44458L13.4367 2.98401H13.9751L13.5521 3.4029L13.7555 3.97294L13.1891 3.69246ZM12.6507 2.53519L13.1554 2.25472L13.7218 2.53519L13.5184 1.96516L13.9414 1.54627H13.403L13.1547 1.00684L12.9428 1.54627H12.3113L12.7948 1.96516L12.6507 2.53519ZM15.4618 5.22066L14.957 5.50114L15.1012 4.9311L14.6177 4.51221H15.2492L15.4611 3.97278L15.7094 4.51221H16.2478L15.8248 4.9311L16.0282 5.50114L15.4618 5.22066ZM14.957 3.97294L15.4618 3.69246L16.0282 3.97294L15.8248 3.4029L16.2478 2.98401H15.7094L15.4611 2.44458L15.2492 2.98401H14.6177L15.1012 3.4029L14.957 3.97294ZM15.4281 2.25472L14.9234 2.53519L15.0675 1.96516L14.584 1.54627H15.2155L15.4274 1.00684L15.6757 1.54627H16.2141L15.7911 1.96516L15.9945 2.53519L15.4281 2.25472ZM4.41368 6.18058C4.41368 6.18058 2.60179 5.68916 2.63591 3.87155C2.67003 2.05393 4.5 1.58203 4.5 1.58203C3.75227 1.29887 1.54136 1.67882 1.50055 3.85312C1.45973 6.02742 3.71695 6.45575 4.41368 6.18058Z" fill="#F7FCFF"/>
</g>
<defs>
<clipPath id="clip0_183_3279">
<rect width="24" height="18" fill="white"/>
</clipPath>
</defs>
</svg>
