<svg width="16" height="17" viewBox="0 0 16 17" fill="none" xmlns="http://www.w3.org/2000/svg">
    <path
        d="M5.12866 4.28924C5.60455 3.14013 6.73654 2.33325 8.0558 2.33325C9.37506 2.33325 10.507 3.14013 10.9829 4.28924C11.0886 4.54437 11.3811 4.66554 11.6362 4.55988C11.8913 4.45423 12.0125 4.16175 11.9068 3.90662C11.2816 2.39685 9.79349 1.33325 8.0558 1.33325C6.31811 1.33325 4.83001 2.39685 4.20476 3.90662C4.0991 4.16175 4.22027 4.45423 4.4754 4.55988C4.73053 4.66554 5.023 4.54437 5.12866 4.28924Z"
        fill="#272D37" />
    <path d="M4.66671 10.4999C4.66671 10.8681 4.36823 11.1666 4.00004 11.1666C3.63185 11.1666 3.33338 10.8681 3.33338 10.4999C3.33338 10.1317 3.63185 9.83325 4.00004 9.83325C4.36823 9.83325 4.66671 10.1317 4.66671 10.4999Z" fill="#272D37" />
    <path d="M6.66671 10.4999C6.66671 10.8681 6.36823 11.1666 6.00004 11.1666C5.63185 11.1666 5.33338 10.8681 5.33338 10.4999C5.33338 10.1317 5.63185 9.83325 6.00004 9.83325C6.36823 9.83325 6.66671 10.1317 6.66671 10.4999Z" fill="#272D37" />
    <path d="M8.83338 10.4999C8.83338 10.2238 9.05723 9.99992 9.33338 9.99992H12C12.2762 9.99992 12.5 10.2238 12.5 10.4999C12.5 10.7761 12.2762 10.9999 12 10.9999H9.33338C9.05723 10.9999 8.83338 10.7761 8.83338 10.4999Z" fill="#272D37" />
    <path fill-rule="evenodd" clip-rule="evenodd"
        d="M1.75197 2.73246C1.99173 2.59546 2.29716 2.67876 2.43416 2.91852L4.95687 7.33325H11.0432L13.5659 2.91852C13.7029 2.67876 14.0084 2.59546 14.2481 2.73246C14.4879 2.86947 14.5712 3.1749 14.4342 3.41465L12.1949 7.33329C12.7233 7.33367 13.1691 7.33804 13.5297 7.38653C13.9482 7.4428 14.3261 7.56658 14.6297 7.87022C14.9334 8.17387 15.0572 8.55174 15.1134 8.97027C15.1667 9.36679 15.1667 9.86627 15.1667 10.4653V10.5346C15.1667 11.1336 15.1667 11.6331 15.1134 12.0296C15.0572 12.4481 14.9334 12.826 14.6297 13.1296C14.3261 13.4333 13.9482 13.557 13.5297 13.6133C13.1332 13.6666 12.6338 13.6666 12.0349 13.6666H3.96538C3.36646 13.6666 2.86688 13.6666 2.47039 13.6133C2.05186 13.557 1.67399 13.4333 1.37035 13.1296C1.0667 12.826 0.94292 12.4481 0.88665 12.0296C0.83334 11.6331 0.833356 11.1336 0.833375 10.5346V10.4653C0.833356 9.86627 0.83334 9.36678 0.88665 8.97027C0.94292 8.55174 1.0667 8.17387 1.37035 7.87022C1.67399 7.56658 2.05186 7.4428 2.47039 7.38653C2.83101 7.33804 3.27679 7.33367 3.80514 7.33329L1.56592 3.41465C1.42892 3.1749 1.51221 2.86947 1.75197 2.73246ZM11.3237 8.33325C11.3298 8.33337 11.336 8.33337 11.3422 8.33325H12C12.6427 8.33325 13.0744 8.33431 13.3964 8.37761C13.7041 8.41897 13.8358 8.49045 13.9226 8.57733C14.0095 8.66421 14.081 8.79587 14.1224 9.10351C14.1656 9.42554 14.1667 9.85724 14.1667 10.4999C14.1667 11.1426 14.1656 11.5743 14.1224 11.8963C14.081 12.204 14.0095 12.3356 13.9226 12.4225C13.8358 12.5094 13.7041 12.5809 13.3964 12.6222C13.0744 12.6655 12.6427 12.6666 12 12.6666H4.00004C3.35737 12.6666 2.92566 12.6655 2.60364 12.6222C2.296 12.5809 2.16433 12.5094 2.07745 12.4225C1.99058 12.3356 1.91909 12.204 1.87773 11.8963C1.83444 11.5743 1.83338 11.1426 1.83338 10.4999C1.83338 9.85724 1.83444 9.42554 1.87773 9.10351C1.91909 8.79587 1.99058 8.66421 2.07745 8.57733C2.16433 8.49045 2.296 8.41897 2.60364 8.37761C2.92566 8.33431 3.35737 8.33325 4.00004 8.33325H4.65793C4.66408 8.33337 4.67025 8.33337 4.67641 8.33325H11.3237Z"
        fill="#272D37" />
    <path
        d="M8.05628 3.99992C7.37473 3.99992 6.79813 4.45488 6.61609 5.07872C6.53874 5.34381 6.26113 5.49599 5.99605 5.41864C5.73096 5.34128 5.57877 5.06368 5.65613 4.79859C5.95928 3.75971 6.9184 2.99992 8.05628 2.99992C9.19417 2.99992 10.1533 3.75971 10.4564 4.79859C10.5338 5.06368 10.3816 5.34128 10.1165 5.41864C9.85143 5.49599 9.57383 5.34381 9.49648 5.07872C9.31444 4.45488 8.73784 3.99992 8.05628 3.99992Z"
        fill="#272D37" />
    <path d="M8.05603 5.83325C8.42422 5.83325 8.7227 5.53478 8.7227 5.16659C8.7227 4.7984 8.42422 4.49992 8.05603 4.49992C7.68784 4.49992 7.38937 4.7984 7.38937 5.16659C7.38937 5.53478 7.68784 5.83325 8.05603 5.83325Z" fill="#272D37" />
</svg>
