<svg width="25" height="25" viewBox="0 0 25 25" fill="none" xmlns="http://www.w3.org/2000/svg">
    <g clip-path="url(#clip0_313_2606)">
        <path
            d="M13.6705 6.7288C13.6705 6.7288 12.5409 8.5 11.4497 8.5H7.44966C6.35846 8.5 5.37286 9.1544 4.61286 9.8824L1.04966 13.3C0.619259 13.7128 0.260859 14.5288 0.249659 14.9C0.224059 15.7 0.249659 16.5 0.249659 16.5C0.249659 16.5 1.84966 16.5 1.84966 14.9V14.1L3.44966 12.5H4.24966L4.50246 12.964C4.50246 12.964 2.97766 15.8824 2.97766 18.6088C2.97766 19.7 4.06726 19.7 4.06726 19.7H5.15846C5.15846 19.7 5.70406 19.7 5.15846 19.156L4.61446 18.6088C4.61286 17.5176 5.84966 15.9672 6.64966 14.9C6.64966 14.9 6.67686 16.7528 6.64966 18.1C6.63686 18.756 7.08486 19.7 7.74086 19.7H8.83206C8.83206 19.7 9.37606 19.7 8.83206 19.156L8.28646 18.6088C7.78566 17.7 9.04966 14.1 9.04966 14.1C11.0849 14.1 11.4497 14.9 13.8497 14.9L14.4321 18.6088C14.6097 19.7448 15.4497 19.7 15.4497 19.7H17.8497C18.3937 19.7 19.3873 19.2024 18.3937 18.4616L17.8497 18.1V14.9C19.7921 14.6248 21.0497 13.3 21.0497 11.7H22.6497C23.1633 11.7 24.2497 11.7 24.2497 10.9V9.3L21.5233 6.6088C20.3201 5.4248 19.4497 4.5 17.8497 4.5C15.5249 4.5 14.4321 5.4104 13.6705 6.7288Z"
            fill="#FF9928" />
    </g>
    <defs>
        <clipPath id="clip0_313_2606">
            <rect width="24" height="24" fill="white" transform="translate(0.25 0.5)" />
        </clipPath>
    </defs>
</svg>
